<svg xmlns="http://www.w3.org/2000/svg" xmlns:xlink="http://www.w3.org/1999/xlink" viewBox="0 0 23.989 38" overflow="visible"><g><path d="M 3.085 38 C 1.593 38 0 36.806 0 34.516 L 0 29.14 C 0 27.001 1.343 24.537 3.236 23.517 L 10.751 19.087 L 3.236 14.657 C 1.419 13.463 0 11.098 0 8.959 L 0 3.484 C 0 1.194 1.593 0 3.16 0 C 3.782 0 4.503 0.149 5.15 0.548 L 22.097 10.602 C 23.291 11.324 23.914 12.418 23.914 13.538 C 23.914 14.732 23.192 15.828 22.097 16.474 L 18.067 18.839 L 22.097 21.203 C 23.291 21.925 23.989 23.02 23.989 24.139 C 23.989 25.333 23.267 26.43 22.097 27.075 L 5.15 37.452 C 4.43 37.826 3.807 38 3.085 38 Z M 14.409 21.202 L 5.152 26.676 C 4.43 27.074 3.733 28.344 3.733 29.14 L 3.733 33.968 L 19.809 24.462 Z M 3.733 4.107 L 3.733 8.934 C 3.733 9.731 4.455 10.999 5.152 11.398 L 14.409 16.873 L 19.883 13.637 Z" fill="rgb(254,80,0)"></path></g></svg>