<svg xmlns="http://www.w3.org/2000/svg" xmlns:xlink="http://www.w3.org/1999/xlink" viewBox="0 0 31.477 38.333" overflow="visible"><g><path d="M 30.476 14.213 L 8.396 0.395 C 7.727 0.004 7.046 -0.163 6.364 0.205 C 5.792 0.523 5.511 1.284 5.511 1.973 L 5.511 28.518 L 8.401 26.705 L 8.401 3.777 L 27.787 15.905 L 26.383 16.783 L 29.123 18.507 L 30.513 17.633 C 31.07 17.289 31.477 16.594 31.477 15.905 C 31.477 15.216 31.034 14.563 30.476 14.213 Z" fill="rgb(0,186,245)"></path><path d="M 30.516 20.773 L 9.578 7.67 L 9.578 11.107 L 27.774 22.493 L 8.39 34.624 L 8.39 32.868 L 5.511 34.671 L 5.511 36.423 C 5.511 37.111 5.846 37.829 6.419 38.144 C 7.188 38.567 8.117 38.174 8.39 38.005 L 30.483 24.188 C 31.029 23.838 31.475 23.128 31.475 22.44 C 31.475 21.752 31.07 21.117 30.516 20.773 Z" fill="rgb(0,186,245)"></path><path d="M 21.494 19.864 L 2.886 31.521 L 2.886 6.889 L 4.354 7.817 L 4.354 4.365 L 2.886 3.423 C 2.32 3.099 1.443 3.07 0.895 3.423 C 0.347 3.775 0 4.445 0 5.132 L 0 33.319 C 0 34.008 0.008 34.778 0.895 35.208 C 1.685 35.592 2.619 35.09 2.89 34.923 L 24.249 21.585 Z" fill="rgb(0,186,245)"></path></g></svg>