<svg xmlns="http://www.w3.org/2000/svg" xmlns:xlink="http://www.w3.org/1999/xlink" viewBox="0 0 38.643 38" overflow="visible"><g><g transform="translate(0 0)"><path d="M 28.253 7.833 C 28.42 7.867 28.595 7.827 28.73 7.722 C 28.865 7.617 28.948 7.459 28.958 7.288 C 29.042 5.602 28.946 1.464 26.182 0.44 C 22.598 -0.885 16.819 0.972 12.384 3.499 C 7.894 6.055 2.252 12.043 0 18.138 C 0 18.138 8.345 10.92 16.916 8.816 C 23.373 7.231 26.904 7.57 28.253 7.835 M 7.234 18.367 C 7.18 18.205 7.057 18.074 6.899 18.009 C 6.741 17.945 6.562 17.952 6.409 18.029 C 4.905 18.799 1.37 20.953 1.866 23.857 C 2.509 27.625 7.008 31.699 11.414 34.278 C 15.874 36.888 23.881 38.782 30.283 37.68 C 30.283 37.68 19.862 34.063 13.753 27.694 C 9.151 22.894 7.68 19.667 7.234 18.367 M 26.954 31.462 C 26.841 31.591 26.789 31.762 26.812 31.931 C 26.835 32.101 26.931 32.252 27.074 32.345 C 28.492 33.263 32.125 35.247 34.392 33.365 C 37.333 30.926 38.613 24.992 38.642 19.887 C 38.673 14.721 36.31 6.839 32.156 1.843 C 32.156 1.843 34.234 12.679 31.772 21.153 C 29.916 27.538 27.856 30.426 26.954 31.464" fill="rgb(204,27,38)"></path></g></g></svg>