<svg xmlns="http://www.w3.org/2000/svg" xmlns:xlink="http://www.w3.org/1999/xlink" viewBox="0 0 38 28.96" overflow="visible"><g><g><g><path d="M 36.985 23.406 C 36.137 23.34 34.668 23.144 32.774 23.993 C 30.914 24.875 30.163 24.907 29.249 24.809 C 29.51 25.266 30.065 25.887 31.762 26.017 C 33.46 26.115 34.309 26.18 33.395 28.172 C 33.427 27.584 33.264 26.409 31.567 26.605 C 29.869 26.801 29.477 28.237 31.305 28.922 C 30.718 29.02 29.445 29.086 28.563 26.931 C 27.943 27.192 26.996 27.682 25.234 26.441 C 25.854 26.637 26.605 26.67 26.605 26.67 C 25.07 25.984 23.569 24.711 22.655 23.504 C 23.406 24.026 24.222 24.548 25.07 24.646 C 24.091 23.536 21.806 21.284 18.999 18.999 C 20.794 20.076 22.981 21.806 26.507 21.414 C 30.065 21.023 32.448 20.272 36.985 23.406" fill="rgb(252,0,0)"></path><path d="M 22.002 22.981 C 19.619 22.1 19.129 21.904 16.061 21.251 C 13.025 20.566 10.022 19.195 7.998 17.007 C 9.401 17.921 12.307 19.717 15.277 19.521 C 14.82 18.933 14.004 18.509 12.992 18.052 C 14.102 18.281 17.497 19.031 22.002 22.981" fill="rgb(252,0,0)"></path><path d="M 35.973 22.002 C 35.092 21.349 33.982 20.99 33.982 20.99 C 36.071 21.186 35.973 21.48 35.973 22.002 Z M 6.006 1.012 C 7.28 4.897 10.283 6.3 13.515 8.912 C 16.746 11.523 16.942 12.927 17.889 14.494 C 20.011 17.954 20.337 18.509 22.459 20.011 C 24.94 21.643 27.943 20.533 31.24 21.055 C 34.537 21.578 37.247 24.058 37.834 25.005 C 38.52 23.797 36.887 22.035 36.43 21.578 C 36.659 19.978 32.872 19.26 31.403 18.738 C 31.11 18.64 30.424 18.476 31.012 17.04 C 31.828 15.049 32.709 13.319 21.382 10.185 C 12.372 7.606 8.781 4.374 6.006 1.012 Z" fill="rgb(252,0,0)"></path><path d="M 17.007 14.984 C 16.42 13.384 15.408 11.36 10.511 8.324 C 8.096 6.79 4.603 4.897 0 0 C 0.326 1.306 1.795 4.733 9.108 9.206 C 11.523 10.805 14.657 11.784 17.007 14.984" fill="rgb(252,0,0)"></path><path d="M 17.007 17.987 C 16.452 16.648 15.277 14.918 10.805 12.47 C 8.716 11.295 5.19 9.467 1.991 6.006 C 2.285 7.247 3.754 9.989 10.12 13.417 C 11.882 14.429 14.853 15.343 17.007 17.987" fill="rgb(252,0,0)"></path></g></g></g></svg>