<svg xmlns="http://www.w3.org/2000/svg" xmlns:xlink="http://www.w3.org/1999/xlink" viewBox="0 0 25.213 38" overflow="visible"><path d="M 25.213 25.664 L 25.213 20.576 L 0.315 8.059 L 0.315 13.642 L 19.585 23.007 L 0.315 32.507 L 0.315 38 Z M 2.746 0 C 1.216 0 0 1.261 0 2.791 C 0 4.367 1.216 5.583 2.746 5.583 C 4.277 5.583 5.493 4.367 5.493 2.791 C 5.493 1.261 4.277 0 2.746 0 Z M 2.746 0.45 C 3.962 0.45 4.953 1.531 4.953 2.836 C 4.953 4.142 3.962 5.223 2.746 5.178 C 1.486 5.178 0.495 4.142 0.495 2.791 C 0.495 1.486 1.486 0.45 2.746 0.45 Z M 2.206 3.107 L 2.521 3.107 C 2.927 3.107 3.107 3.242 3.197 3.647 C 3.242 4.052 3.332 4.322 3.422 4.412 L 3.962 4.412 C 3.917 4.322 3.827 4.142 3.782 3.647 C 3.737 3.197 3.557 2.927 3.242 2.882 L 3.242 2.836 C 3.557 2.746 3.872 2.476 3.872 2.071 C 3.872 1.801 3.782 1.576 3.602 1.441 C 3.422 1.306 3.107 1.216 2.656 1.216 C 2.296 1.216 2.026 1.261 1.756 1.306 L 1.756 4.412 L 2.251 4.412 L 2.251 3.107 Z M 2.206 1.621 C 2.296 1.621 2.386 1.576 2.566 1.576 C 3.107 1.576 3.332 1.846 3.332 2.116 C 3.332 2.521 2.972 2.656 2.566 2.656 L 2.206 2.656 Z" fill="rgb(255,255,255)"></path></svg>