<svg xmlns="http://www.w3.org/2000/svg" xmlns:xlink="http://www.w3.org/1999/xlink" viewBox="0 0 29.92 38" overflow="visible"><g><path d="M 16.666 28.638 L 19.129 31.518 L 21.974 29.026 L 24.762 26.587 C 27.757 23.949 29.596 20.223 29.881 16.221 C 30.167 12.22 28.875 8.261 26.286 5.217 C 23.678 2.188 19.995 0.33 16.037 0.04 C 12.078 -0.251 8.169 1.061 5.159 3.679 C 2.163 6.311 0.324 10.042 0.039 14.044 C -0.247 18.046 1.045 22.004 3.634 25.048 L 13.462 36.536 C 14.338 37.562 15.263 38.675 16.69 37.489 L 16.734 37.455 L 16.777 37.416 C 18.142 36.153 17.188 35.074 16.308 34.044 L 15.693 33.327 L 6.48 22.551 C 4.544 20.272 3.576 17.31 3.794 14.315 C 4.007 11.319 5.386 8.527 7.622 6.553 C 9.866 4.599 12.797 3.62 15.766 3.833 C 18.727 4.051 21.486 5.44 23.441 7.705 C 25.376 9.984 26.344 12.945 26.131 15.941 C 25.92 18.929 24.546 21.716 22.303 23.703 L 19.516 26.141 L 17.053 23.262 L 14.59 20.383 L 12.18 17.567 C 11.549 16.813 11.237 15.842 11.309 14.862 C 11.379 13.882 11.827 12.968 12.558 12.311 C 13.298 11.675 14.26 11.358 15.234 11.431 C 16.206 11.503 17.111 11.953 17.755 12.694 C 18.292 13.335 18.602 14.137 18.635 14.973 C 18.669 15.81 18.427 16.638 17.948 17.32 C 17.924 17.354 17.905 17.383 17.88 17.412 C 17.634 17.77 17.518 18.196 17.537 18.631 C 17.561 19.067 17.721 19.478 18.001 19.807 C 19.24 21.254 20.605 20.257 21.331 19.033 C 22.139 17.668 22.507 16.081 22.376 14.494 C 22.245 12.907 21.626 11.407 20.6 10.197 C 19.303 8.697 17.469 7.772 15.505 7.627 C 13.535 7.482 11.595 8.131 10.094 9.427 C 8.609 10.739 7.699 12.592 7.554 14.586 C 7.414 16.575 8.052 18.539 9.335 20.059 L 11.745 22.875 L 14.208 25.749 L 16.671 28.629 Z" fill="rgb(48,145,207)"></path></g></svg>