<svg xmlns="http://www.w3.org/2000/svg" xmlns:xlink="http://www.w3.org/1999/xlink" viewBox="0 0 44.465 38" overflow="visible"><g><path d="M 0 0 L 44.162 0 L 44.162 38 L 0 38 Z" fill="transparent"></path><path d="M 40.015 10.613 C 39.384 9.749 38.712 8.914 38.002 8.113 C 33.05 2.606 27.807 0.852 24.416 0.292 C 23.079 0.14 21.737 0.043 20.392 0 L 20.392 37.211 C 20.868 37.211 21.345 37.211 21.795 37.184 C 21.875 37.184 21.927 37.184 22.006 37.158 C 23.534 37.064 25.055 36.886 26.562 36.625 C 27.318 36.478 28.061 36.273 28.786 36.013 C 32.891 34.578 36.016 32.024 38.373 29.311 C 38.77 28.86 39.141 28.407 39.485 27.954 C 43.086 23.22 44.465 18.459 44.465 18.459 C 43.086 15.346 41.577 12.767 40.015 10.613 Z" fill="rgb(68,121,243)"></path><path d="M 32.628 14.893 C 33.416 14.892 34.172 14.577 34.728 14.018 C 35.284 13.459 35.596 12.703 35.594 11.914 C 35.596 11.126 35.284 10.369 34.728 9.81 C 34.172 9.251 33.416 8.937 32.628 8.935 C 30.986 8.939 29.658 10.273 29.662 11.914 C 29.658 13.556 30.986 14.889 32.628 14.893 Z" fill="rgb(255,255,255)"></path><path d="M 32.628 13.404 C 33.022 13.404 33.4 13.246 33.678 12.967 C 33.956 12.688 34.112 12.309 34.111 11.915 C 34.112 11.521 33.956 11.142 33.678 10.863 C 33.4 10.583 33.022 10.426 32.628 10.425 C 32.233 10.426 31.855 10.583 31.577 10.863 C 31.299 11.142 31.143 11.521 31.145 11.915 C 31.144 12.309 31.299 12.688 31.578 12.967 C 31.856 13.246 32.234 13.404 32.628 13.404 Z" fill="rgb(4,4,4)"></path><path d="M 9.72 0 C 9.671 -0.001 9.623 0.018 9.588 0.053 C 9.552 0.088 9.533 0.136 9.534 0.185 L 9.534 2.554 C 9.534 2.661 9.613 2.739 9.719 2.739 C 13.65 2.843 16.779 6.067 16.764 10 C 16.763 13.916 13.66 17.127 9.747 17.262 L 9.534 17.262 L 9.534 20.002 C 13.534 20.002 16.764 23.246 16.764 27.262 C 16.764 31.226 13.612 34.445 9.719 34.523 C 9.669 34.522 9.621 34.542 9.586 34.577 C 9.551 34.613 9.532 34.661 9.534 34.711 L 9.534 37.078 C 9.534 37.185 9.613 37.263 9.719 37.263 L 20.392 37.237 L 20.392 0 Z" fill="rgb(255, 255, 255)"></path><path d="M 9.534 27.21 L 9.534 9.999 C 9.528 9.913 9.46 9.845 9.375 9.839 L 0.159 9.839 C 0.074 9.845 0.006 9.913 0 9.999 L 0 12.073 C 0 12.153 0.08 12.233 0.159 12.233 C 3.602 12.313 6.356 15.132 6.356 18.616 C 6.356 22.102 3.602 24.92 0.159 25 C 0.08 25 0 25.081 0 25.16 L 0 27.234 C 0 27.315 0.08 27.394 0.159 27.394 L 9.375 27.367 C 9.46 27.361 9.528 27.293 9.534 27.208 Z" fill="rgb(255, 255, 255)"></path></g></svg>