<svg xmlns="http://www.w3.org/2000/svg" xmlns:xlink="http://www.w3.org/1999/xlink" viewBox="0 0 38 22.77" overflow="visible"><g><path d="M 10.687 8.197 C 10.687 8.67 10.75 9.048 10.813 9.332 C 10.908 9.615 11.034 9.899 11.223 10.246 C 11.286 10.34 11.318 10.435 11.318 10.53 C 11.318 10.656 11.255 10.782 11.065 10.908 L 10.277 11.444 C 10.151 11.507 10.057 11.57 9.962 11.57 C 9.836 11.57 9.71 11.507 9.584 11.381 C 9.395 11.192 9.269 11.002 9.142 10.782 C 9.016 10.561 8.89 10.34 8.764 10.025 C 7.787 11.192 6.557 11.759 5.044 11.759 C 3.972 11.759 3.153 11.444 2.522 10.845 C 1.892 10.246 1.576 9.426 1.576 8.417 C 1.576 7.345 1.955 6.463 2.711 5.832 C 3.468 5.202 4.508 4.855 5.801 4.855 C 6.242 4.855 6.683 4.886 7.125 4.95 C 7.598 5.013 8.071 5.107 8.575 5.233 L 8.575 4.319 C 8.575 3.373 8.386 2.68 7.976 2.301 C 7.566 1.923 6.904 1.734 5.927 1.734 C 5.485 1.734 5.044 1.797 4.571 1.892 C 4.098 2.018 3.657 2.144 3.216 2.333 C 3.026 2.396 2.869 2.459 2.774 2.491 C 2.68 2.491 2.617 2.522 2.585 2.522 C 2.396 2.522 2.333 2.396 2.333 2.144 L 2.333 1.513 C 2.333 1.324 2.364 1.166 2.427 1.072 C 2.491 0.977 2.617 0.883 2.774 0.82 C 3.216 0.599 3.752 0.41 4.351 0.252 C 4.981 0.095 5.612 0 6.305 0 C 7.818 0 8.89 0.347 9.615 1.009 C 10.309 1.702 10.656 2.711 10.656 4.13 Z M 5.58 10.12 C 5.99 10.12 6.431 10.057 6.873 9.899 C 7.314 9.741 7.724 9.458 8.071 9.079 C 8.26 8.827 8.417 8.575 8.512 8.26 C 8.575 7.944 8.638 7.598 8.638 7.156 L 8.638 6.62 C 8.26 6.526 7.881 6.463 7.472 6.4 C 7.062 6.337 6.683 6.337 6.274 6.337 C 5.422 6.337 4.823 6.494 4.382 6.841 C 3.972 7.188 3.752 7.661 3.752 8.291 C 3.752 8.89 3.909 9.332 4.224 9.615 C 4.54 9.994 4.981 10.12 5.58 10.12 Z M 15.7 11.507 C 15.479 11.507 15.321 11.475 15.227 11.381 C 15.132 11.318 15.038 11.129 14.975 10.876 L 12.011 1.103 C 11.948 0.851 11.885 0.694 11.885 0.599 C 11.885 0.41 11.98 0.284 12.2 0.284 L 13.43 0.284 C 13.682 0.284 13.84 0.315 13.934 0.41 C 14.029 0.473 14.123 0.662 14.186 0.914 L 16.299 9.269 L 18.253 0.914 C 18.316 0.662 18.379 0.504 18.505 0.41 C 18.6 0.347 18.789 0.284 19.01 0.284 L 20.019 0.284 C 20.271 0.284 20.429 0.315 20.523 0.41 C 20.618 0.473 20.712 0.662 20.775 0.914 L 22.761 9.363 L 24.937 0.914 C 25 0.662 25.094 0.504 25.189 0.41 C 25.283 0.347 25.441 0.284 25.693 0.284 L 26.86 0.284 C 27.049 0.284 27.175 0.378 27.175 0.599 C 27.175 0.662 27.175 0.725 27.143 0.788 C 27.143 0.851 27.112 0.977 27.049 1.103 L 23.991 10.876 C 23.928 11.129 23.833 11.286 23.739 11.381 C 23.644 11.444 23.487 11.507 23.266 11.507 L 22.194 11.507 C 21.942 11.507 21.784 11.475 21.69 11.381 C 21.595 11.286 21.5 11.129 21.437 10.876 L 19.483 2.743 L 17.528 10.876 C 17.465 11.129 17.402 11.286 17.276 11.381 C 17.181 11.475 16.992 11.507 16.772 11.507 Z M 31.935 11.822 C 31.273 11.822 30.611 11.759 29.981 11.601 C 29.35 11.444 28.846 11.286 28.531 11.097 C 28.341 10.971 28.184 10.845 28.152 10.75 C 28.121 10.656 28.058 10.498 28.058 10.403 L 28.058 9.773 C 28.058 9.521 28.152 9.395 28.341 9.395 C 28.405 9.395 28.499 9.395 28.562 9.426 C 28.625 9.458 28.751 9.489 28.877 9.552 C 29.319 9.741 29.76 9.899 30.265 9.994 C 30.769 10.088 31.273 10.151 31.778 10.151 C 32.566 10.151 33.196 10.025 33.606 9.741 C 34.048 9.458 34.268 9.048 34.268 8.543 C 34.268 8.197 34.142 7.913 33.921 7.661 C 33.701 7.409 33.259 7.219 32.66 6.999 L 30.832 6.431 C 29.918 6.147 29.224 5.706 28.814 5.139 C 28.405 4.571 28.184 3.972 28.184 3.31 C 28.184 2.774 28.31 2.301 28.531 1.923 C 28.751 1.545 29.067 1.166 29.445 0.883 C 29.823 0.599 30.265 0.378 30.769 0.221 C 31.273 0.063 31.809 0 32.345 0 C 32.629 0 32.913 0 33.196 0.063 C 33.48 0.095 33.764 0.158 34.016 0.189 C 34.268 0.252 34.52 0.315 34.741 0.378 C 34.962 0.441 35.151 0.536 35.277 0.599 C 35.466 0.694 35.592 0.788 35.655 0.914 C 35.718 1.009 35.781 1.166 35.781 1.324 L 35.781 1.923 C 35.781 2.175 35.687 2.333 35.498 2.333 C 35.403 2.333 35.246 2.27 35.025 2.175 C 34.3 1.86 33.512 1.671 32.597 1.671 C 31.872 1.671 31.305 1.797 30.927 2.018 C 30.548 2.238 30.328 2.617 30.328 3.153 C 30.328 3.499 30.454 3.815 30.706 4.035 C 30.958 4.287 31.431 4.508 32.093 4.729 L 33.89 5.296 C 34.804 5.58 35.466 5.99 35.845 6.494 C 36.223 6.999 36.412 7.598 36.412 8.26 C 36.412 8.796 36.286 9.3 36.097 9.71 C 35.876 10.151 35.561 10.53 35.183 10.813 C 34.804 11.129 34.331 11.349 33.795 11.507 C 33.165 11.759 32.566 11.822 31.935 11.822 Z" fill="rgb(255,255,255)"></path><path d="M 34.335 18.072 C 30.173 21.13 24.12 22.77 18.95 22.77 C 11.668 22.77 5.11 20.09 0.161 15.613 C -0.217 15.266 0.129 14.794 0.602 15.046 C 5.962 18.167 12.55 20.027 19.391 20.027 C 23.994 20.027 29.07 19.081 33.736 17.095 C 34.398 16.811 34.997 17.568 34.335 18.072 Z" fill="rgb(255,153,0)"></path><path d="M 36.096 16.067 C 35.56 15.374 32.596 15.752 31.241 15.91 C 30.831 15.973 30.768 15.594 31.146 15.342 C 33.511 13.671 37.42 14.144 37.861 14.712 C 38.303 15.279 37.735 19.188 35.528 21.048 C 35.182 21.332 34.866 21.174 35.024 20.796 C 35.528 19.535 36.632 16.729 36.096 16.067 Z" fill="rgb(255,153,0)"></path><path d="M 10.687 8.197 C 10.687 8.67 10.75 9.048 10.813 9.332 C 10.908 9.615 11.034 9.899 11.223 10.246 C 11.286 10.34 11.318 10.435 11.318 10.53 C 11.318 10.656 11.255 10.782 11.065 10.908 L 10.277 11.444 C 10.151 11.507 10.057 11.57 9.962 11.57 C 9.836 11.57 9.71 11.507 9.584 11.381 C 9.395 11.192 9.269 11.002 9.142 10.782 C 9.016 10.561 8.89 10.34 8.764 10.025 C 7.787 11.192 6.557 11.759 5.044 11.759 C 3.972 11.759 3.153 11.444 2.522 10.845 C 1.892 10.246 1.576 9.426 1.576 8.417 C 1.576 7.345 1.955 6.463 2.711 5.832 C 3.468 5.202 4.508 4.855 5.801 4.855 C 6.242 4.855 6.683 4.886 7.125 4.95 C 7.598 5.013 8.071 5.107 8.575 5.233 L 8.575 4.319 C 8.575 3.373 8.386 2.68 7.976 2.301 C 7.566 1.923 6.904 1.734 5.927 1.734 C 5.485 1.734 5.044 1.797 4.571 1.892 C 4.098 2.018 3.657 2.144 3.216 2.333 C 3.026 2.396 2.869 2.459 2.774 2.491 C 2.68 2.491 2.617 2.522 2.585 2.522 C 2.396 2.522 2.333 2.396 2.333 2.144 L 2.333 1.513 C 2.333 1.324 2.364 1.166 2.427 1.072 C 2.491 0.977 2.617 0.883 2.774 0.82 C 3.216 0.599 3.752 0.41 4.351 0.252 C 4.981 0.095 5.612 0 6.305 0 C 7.818 0 8.89 0.347 9.615 1.009 C 10.309 1.702 10.656 2.711 10.656 4.13 Z M 5.58 10.12 C 5.99 10.12 6.431 10.057 6.873 9.899 C 7.314 9.741 7.724 9.458 8.071 9.079 C 8.26 8.827 8.417 8.575 8.512 8.26 C 8.575 7.944 8.638 7.598 8.638 7.156 L 8.638 6.62 C 8.26 6.526 7.881 6.463 7.472 6.4 C 7.062 6.337 6.683 6.337 6.274 6.337 C 5.422 6.337 4.823 6.494 4.382 6.841 C 3.972 7.188 3.752 7.661 3.752 8.291 C 3.752 8.89 3.909 9.332 4.224 9.615 C 4.54 9.994 4.981 10.12 5.58 10.12 Z M 15.7 11.507 C 15.479 11.507 15.321 11.475 15.227 11.381 C 15.132 11.318 15.038 11.129 14.975 10.876 L 12.011 1.103 C 11.948 0.851 11.885 0.694 11.885 0.599 C 11.885 0.41 11.98 0.284 12.2 0.284 L 13.43 0.284 C 13.682 0.284 13.84 0.315 13.934 0.41 C 14.029 0.473 14.123 0.662 14.186 0.914 L 16.299 9.269 L 18.253 0.914 C 18.316 0.662 18.379 0.504 18.505 0.41 C 18.6 0.347 18.789 0.284 19.01 0.284 L 20.019 0.284 C 20.271 0.284 20.429 0.315 20.523 0.41 C 20.618 0.473 20.712 0.662 20.775 0.914 L 22.761 9.363 L 24.937 0.914 C 25 0.662 25.094 0.504 25.189 0.41 C 25.283 0.347 25.441 0.284 25.693 0.284 L 26.86 0.284 C 27.049 0.284 27.175 0.378 27.175 0.599 C 27.175 0.662 27.175 0.725 27.143 0.788 C 27.143 0.851 27.112 0.977 27.049 1.103 L 23.991 10.876 C 23.928 11.129 23.833 11.286 23.739 11.381 C 23.644 11.444 23.487 11.507 23.266 11.507 L 22.194 11.507 C 21.942 11.507 21.784 11.475 21.69 11.381 C 21.595 11.286 21.5 11.129 21.437 10.876 L 19.483 2.743 L 17.528 10.876 C 17.465 11.129 17.402 11.286 17.276 11.381 C 17.181 11.475 16.992 11.507 16.772 11.507 Z M 31.935 11.822 C 31.273 11.822 30.611 11.759 29.981 11.601 C 29.35 11.444 28.846 11.286 28.531 11.097 C 28.341 10.971 28.184 10.845 28.152 10.75 C 28.121 10.656 28.058 10.498 28.058 10.403 L 28.058 9.773 C 28.058 9.521 28.152 9.395 28.341 9.395 C 28.405 9.395 28.499 9.395 28.562 9.426 C 28.625 9.458 28.751 9.489 28.877 9.552 C 29.319 9.741 29.76 9.899 30.265 9.994 C 30.769 10.088 31.273 10.151 31.778 10.151 C 32.566 10.151 33.196 10.025 33.606 9.741 C 34.048 9.458 34.268 9.048 34.268 8.543 C 34.268 8.197 34.142 7.913 33.921 7.661 C 33.701 7.409 33.259 7.219 32.66 6.999 L 30.832 6.431 C 29.918 6.147 29.224 5.706 28.814 5.139 C 28.405 4.571 28.184 3.972 28.184 3.31 C 28.184 2.774 28.31 2.301 28.531 1.923 C 28.751 1.545 29.067 1.166 29.445 0.883 C 29.823 0.599 30.265 0.378 30.769 0.221 C 31.273 0.063 31.809 0 32.345 0 C 32.629 0 32.913 0 33.196 0.063 C 33.48 0.095 33.764 0.158 34.016 0.189 C 34.268 0.252 34.52 0.315 34.741 0.378 C 34.962 0.441 35.151 0.536 35.277 0.599 C 35.466 0.694 35.592 0.788 35.655 0.914 C 35.718 1.009 35.781 1.166 35.781 1.324 L 35.781 1.923 C 35.781 2.175 35.687 2.333 35.498 2.333 C 35.403 2.333 35.246 2.27 35.025 2.175 C 34.3 1.86 33.512 1.671 32.597 1.671 C 31.872 1.671 31.305 1.797 30.927 2.018 C 30.548 2.238 30.328 2.617 30.328 3.153 C 30.328 3.499 30.454 3.815 30.706 4.035 C 30.958 4.287 31.431 4.508 32.093 4.729 L 33.89 5.296 C 34.804 5.58 35.466 5.99 35.845 6.494 C 36.223 6.999 36.412 7.598 36.412 8.26 C 36.412 8.796 36.286 9.3 36.097 9.71 C 35.876 10.151 35.561 10.53 35.183 10.813 C 34.804 11.129 34.331 11.349 33.795 11.507 C 33.165 11.759 32.566 11.822 31.935 11.822 Z" fill="rgb(255,255,255)"></path><path d="M 34.335 18.072 C 30.173 21.13 24.12 22.77 18.95 22.77 C 11.668 22.77 5.11 20.09 0.161 15.613 C -0.217 15.266 0.129 14.794 0.602 15.046 C 5.962 18.167 12.55 20.027 19.391 20.027 C 23.994 20.027 29.07 19.081 33.736 17.095 C 34.398 16.811 34.997 17.568 34.335 18.072 Z" fill="rgb(255,153,0)"></path><path d="M 36.096 16.067 C 35.56 15.374 32.596 15.752 31.241 15.91 C 30.831 15.973 30.768 15.594 31.146 15.342 C 33.511 13.671 37.42 14.144 37.861 14.712 C 38.303 15.279 37.735 19.188 35.528 21.048 C 35.182 21.332 34.866 21.174 35.024 20.796 C 35.528 19.535 36.632 16.729 36.096 16.067 Z" fill="rgb(255,153,0)"></path></g></svg>