<svg xmlns="http://www.w3.org/2000/svg" xmlns:xlink="http://www.w3.org/1999/xlink" viewBox="0 0 38 38" overflow="visible"><g><path d="M 7.964 24.047 C 7.964 26.239 6.174 28.029 3.982 28.029 C 1.79 28.029 0 26.239 0 24.047 C 0 21.855 1.79 20.065 3.982 20.065 L 7.964 20.065 Z M 9.971 24.047 C 9.971 21.855 11.761 20.065 13.953 20.065 C 16.145 20.065 17.935 21.855 17.935 24.047 L 17.935 34.018 C 17.935 36.21 16.145 38 13.953 38 C 11.761 38 9.971 36.21 9.971 34.018 Z" fill="rgb(224,30,90)"></path><path d="M 13.953 7.964 C 11.761 7.964 9.971 6.174 9.971 3.982 C 9.971 1.79 11.761 0 13.953 0 C 16.145 0 17.935 1.79 17.935 3.982 L 17.935 7.964 Z M 13.953 9.971 C 16.145 9.971 17.935 11.761 17.935 13.953 C 17.935 16.145 16.145 17.935 13.953 17.935 L 3.982 17.935 C 1.79 17.935 0 16.145 0 13.953 C 0 11.761 1.79 9.971 3.982 9.971 Z" fill="rgb(54,197,240)"></path><path d="M 30.036 13.953 C 30.036 11.761 31.826 9.971 34.018 9.971 C 36.21 9.971 38 11.761 38 13.953 C 38 16.145 36.21 17.935 34.018 17.935 L 30.036 17.935 Z M 28.029 13.953 C 28.029 16.145 26.239 17.935 24.047 17.935 C 21.855 17.935 20.065 16.145 20.065 13.953 L 20.065 3.982 C 20.065 1.79 21.855 0 24.047 0 C 26.239 0 28.029 1.79 28.029 3.982 Z" fill="rgb(46,182,125)"></path><path d="M 24.047 30.036 C 26.239 30.036 28.029 31.826 28.029 34.018 C 28.029 36.21 26.239 38 24.047 38 C 21.855 38 20.065 36.21 20.065 34.018 L 20.065 30.036 Z M 24.047 28.029 C 21.855 28.029 20.065 26.239 20.065 24.047 C 20.065 21.855 21.855 20.065 24.047 20.065 L 34.018 20.065 C 36.21 20.065 38 21.855 38 24.047 C 38 26.239 36.21 28.029 34.018 28.029 Z" fill="rgb(236,178,46)"></path></g></svg>