<svg xmlns="http://www.w3.org/2000/svg" xmlns:xlink="http://www.w3.org/1999/xlink" viewBox="0 0 38 10.255" overflow="visible"><path d="M 1.561 0 L 0 0 L 0 1.573 L 1.561 1.573 Z M 37.977 8.681 L 36.415 8.681 L 36.415 10.255 L 37.977 10.255 Z M 1.561 7.947 L 0 7.947 L 0 2.307 L 1.561 2.307 Z M 8.74 2.191 C 9.893 2.191 10.581 2.995 10.581 4.277 L 10.581 7.947 L 9.031 7.947 L 9.031 4.591 C 9.031 3.985 8.763 3.589 8.227 3.589 C 7.819 3.589 7.458 3.845 7.365 4.323 L 7.365 7.959 L 5.791 7.959 L 5.791 4.591 C 5.791 3.985 5.535 3.589 4.999 3.589 C 4.591 3.589 4.218 3.845 4.125 4.323 L 4.125 7.959 L 2.575 7.959 L 2.575 2.307 L 4.137 2.307 L 4.137 2.773 C 4.416 2.424 4.929 2.179 5.547 2.179 C 6.211 2.179 6.747 2.482 7.05 2.902 C 7.411 2.494 7.947 2.191 8.74 2.191 Z M 13.144 10.255 L 11.583 10.255 L 11.583 2.307 L 13.144 2.307 L 13.144 2.773 C 13.401 2.47 13.948 2.179 14.543 2.179 C 16.174 2.179 17.095 3.542 17.095 5.127 C 17.095 6.712 16.163 8.064 14.543 8.064 C 13.937 8.064 13.389 7.772 13.144 7.469 Z M 13.144 6.059 C 13.331 6.444 13.75 6.712 14.193 6.712 C 15.032 6.712 15.533 6.025 15.533 5.139 C 15.533 4.23 15.032 3.554 14.193 3.554 C 13.727 3.554 13.331 3.834 13.144 4.207 Z M 19.181 5.489 C 19.297 6.409 19.973 6.794 20.789 6.794 C 21.406 6.794 21.837 6.654 22.385 6.293 L 22.385 7.586 C 21.919 7.924 21.301 8.087 20.544 8.087 C 18.843 8.087 17.666 6.968 17.666 5.186 C 17.666 3.414 18.773 2.191 20.299 2.191 C 21.931 2.191 22.77 3.333 22.77 4.999 L 22.77 5.512 Z M 19.239 4.475 L 21.36 4.475 C 21.325 3.869 20.987 3.438 20.369 3.438 C 19.856 3.438 19.414 3.764 19.239 4.475 Z M 27.023 3.857 C 26.813 3.741 26.534 3.671 26.242 3.671 C 25.718 3.671 25.287 3.95 25.182 4.463 L 25.182 7.947 L 23.62 7.947 L 23.62 2.307 L 25.182 2.307 L 25.182 2.855 C 25.427 2.447 25.881 2.167 26.429 2.167 C 26.697 2.167 26.93 2.226 27.023 2.272 Z M 29.447 7.947 L 27.326 2.307 L 28.946 2.307 L 30.239 6.048 L 31.498 2.307 L 33.071 2.307 L 30.938 7.947 Z M 36.439 4.428 C 36.439 3.892 35.972 3.542 35.192 3.542 C 34.632 3.542 34.108 3.706 33.665 3.997 L 33.665 2.645 C 34.073 2.389 34.795 2.179 35.53 2.179 C 37.079 2.179 38 2.971 38 4.358 L 38 7.947 L 36.439 7.947 L 36.439 7.644 C 36.252 7.831 35.704 8.052 35.087 8.052 C 33.956 8.052 33.013 7.4 33.013 6.223 C 33.013 5.151 33.956 4.428 35.18 4.428 C 35.669 4.428 36.205 4.591 36.427 4.754 L 36.427 4.428 Z M 36.439 6.001 C 36.299 5.698 35.891 5.5 35.448 5.5 C 34.959 5.5 34.458 5.71 34.458 6.199 C 34.458 6.7 34.959 6.898 35.448 6.898 C 35.891 6.898 36.299 6.712 36.439 6.397 Z" fill="rgb(255,255,255)"></path></svg>