<svg xmlns="http://www.w3.org/2000/svg" xmlns:xlink="http://www.w3.org/1999/xlink" viewBox="0 0 38 16.033" overflow="visible"><g><path d="M 32.015 2.153 C 33.859 2.153 35.432 3.102 36.252 4.448 C 36.977 5.701 37.136 7.741 37.136 9.092 C 37.136 10.443 36.975 12.485 36.252 13.738 C 35.432 15.084 33.859 16.033 32.015 16.033 L 5.123 16.033 C 3.277 16.033 1.705 15.084 0.886 13.738 C 0.16 12.487 0 10.447 0 9.094 C 0 7.741 0.16 5.701 0.884 4.448 C 1.705 3.102 3.277 2.153 5.121 2.153 Z" fill="rgb(0,150,161)"></path><path d="M 23.068 8.324 C 23.094 7.437 23.263 7.143 24.169 7.143 C 24.915 7.143 25.331 7.221 25.331 8.254 L 25.331 8.324 Z M 7.176 7.211 C 6.298 7.211 6.122 7.482 6.097 8.35 L 8.318 8.35 L 8.318 8.3 C 8.318 7.284 7.919 7.211 7.176 7.211 Z M 4.038 9.127 C 4.038 6.619 4.599 5.808 7.213 5.808 C 9.657 5.808 10.376 6.473 10.376 9.127 L 10.376 9.442 L 6.096 9.442 L 6.096 9.492 C 6.096 10.652 6.278 11.032 7.214 11.032 C 7.862 11.032 8.331 10.961 8.354 10.267 L 10.376 10.267 C 10.365 11.213 10.047 11.745 9.511 12.054 C 8.957 12.359 8.168 12.435 7.214 12.435 C 4.647 12.435 4.038 11.561 4.038 9.127 Z M 11.741 7.913 C 11.741 5.849 13.074 5.808 14.916 5.808 C 16.143 5.808 17.777 5.829 17.777 7.387 L 17.777 7.652 L 15.837 7.652 C 15.742 7.137 15.33 7.1 14.916 7.1 C 13.785 7.1 13.737 7.241 13.737 7.676 C 13.737 8.044 13.802 8.276 14.914 8.302 C 17.155 8.352 18.091 8.479 18.091 10.269 C 18.091 12.148 16.65 12.437 14.916 12.437 C 14.491 12.437 14.077 12.439 13.696 12.409 C 12.437 12.309 11.755 11.841 11.74 10.406 L 13.8 10.406 C 13.824 11.134 14.376 11.145 14.916 11.145 C 15.887 11.145 16.095 11.084 16.095 10.519 C 16.095 10.182 15.997 9.995 15.783 9.903 C 15.553 9.803 15.163 9.818 14.916 9.818 C 12.19 9.818 11.741 9.21 11.741 7.913 Z M 28.637 7.287 L 30.143 7.287 L 30.143 12.363 L 32.202 12.363 L 32.202 7.287 L 33.706 7.287 L 33.706 5.808 L 28.638 5.808 L 28.638 7.287 Z M 21.053 9.081 C 21.053 11.504 21.655 12.366 24.208 12.366 C 25.162 12.366 25.948 12.29 26.496 11.987 C 27.019 11.683 27.335 11.167 27.35 10.24 L 25.369 10.24 C 25.339 10.934 24.848 11.004 24.208 11.004 C 23.255 11.004 23.072 10.606 23.072 9.444 L 23.072 9.373 L 27.35 9.373 L 27.35 9.081 C 27.35 6.438 26.639 5.782 24.208 5.782 C 21.606 5.782 21.053 6.582 21.053 9.081 Z M 2.53 13.581 C 3.184 14.282 4.439 14.806 5.514 14.808 L 19.382 14.808 L 19.382 3.365 L 5.514 3.365 C 4.439 3.367 3.184 3.893 2.53 4.592 C 1.498 5.699 1.273 7.435 1.273 9.087 C 1.273 10.738 1.498 12.474 2.53 13.579" fill="rgb(255,255,255)"></path><path d="M 34.992 1.496 C 34.985 1.897 35.145 2.283 35.436 2.56 C 36.022 3.14 36.969 3.14 37.556 2.56 C 37.843 2.283 38.004 1.9 38 1.501 L 38 1.498 C 38.003 1.101 37.843 0.721 37.556 0.446 C 37.283 0.158 36.901 -0.004 36.503 0 C 36.101 -0.009 35.713 0.152 35.436 0.443 C 35.147 0.716 34.986 1.097 34.992 1.494 Z M 36.498 0.322 C 36.807 0.316 37.105 0.439 37.32 0.661 C 37.545 0.88 37.67 1.181 37.666 1.494 C 37.671 1.808 37.546 2.109 37.32 2.327 C 37.107 2.553 36.808 2.679 36.498 2.673 C 36.185 2.678 35.885 2.553 35.67 2.327 C 35.445 2.109 35.322 1.807 35.328 1.494 C 35.324 1.181 35.447 0.881 35.67 0.661 C 35.886 0.438 36.187 0.315 36.498 0.322 Z" fill="rgb(0,150,161)"></path><path d="M 36.334 1.503 L 36.484 1.503 L 36.928 2.052 L 37.403 2.052 L 36.839 1.408 C 36.931 1.373 37.013 1.316 37.078 1.242 C 37.141 1.168 37.173 1.072 37.167 0.975 C 37.171 0.903 37.154 0.833 37.121 0.77 C 37.084 0.712 37.03 0.664 36.969 0.633 C 36.911 0.599 36.846 0.579 36.779 0.572 C 36.696 0.561 36.611 0.556 36.527 0.559 L 35.96 0.559 L 35.96 2.052 L 36.324 2.052 L 36.332 1.503 Z M 36.334 0.818 L 36.452 0.818 C 36.497 0.818 36.54 0.818 36.584 0.825 C 36.618 0.825 36.651 0.835 36.681 0.849 C 36.711 0.864 36.735 0.888 36.748 0.92 C 36.763 0.944 36.77 0.972 36.768 0.999 C 36.768 1.036 36.763 1.075 36.75 1.11 C 36.737 1.138 36.716 1.162 36.692 1.183 C 36.659 1.203 36.621 1.22 36.583 1.229 C 36.531 1.234 36.477 1.238 36.425 1.238 L 36.336 1.238 L 36.336 0.818 Z" fill="rgb(0,150,161)"></path></g></svg>