<svg xmlns="http://www.w3.org/2000/svg" xmlns:xlink="http://www.w3.org/1999/xlink" viewBox="0 0 38 37.866" overflow="visible"><g><path d="M 38 19.844 C 38.008 16.686 36.031 13.863 33.06 12.791 C 34.028 7.842 31.418 2.886 26.789 0.883 C 22.161 -1.119 16.762 0.371 13.817 4.466 C 11.804 2.909 9.003 2.874 6.953 4.382 C 4.903 5.889 4.1 8.572 4.986 10.958 C 2.006 12.042 0.017 14.867 0 18.037 C -0.011 21.21 1.98 24.045 4.969 25.111 C 4.842 25.784 4.778 26.467 4.779 27.152 C 4.774 31.804 7.775 35.926 12.204 37.351 C 16.633 38.775 21.475 37.176 24.183 33.393 C 26.192 34.945 28.986 34.98 31.034 33.481 C 33.082 31.981 33.892 29.308 33.02 26.924 C 35.997 25.837 37.984 23.013 38 19.844" fill="rgb(255,255,255)"></path><path d="M 14.923 16.295 L 23.237 20.095 L 31.627 12.744 C 31.749 12.137 31.809 11.52 31.808 10.901 C 31.809 6.79 29.133 3.157 25.206 1.941 C 21.279 0.724 17.017 2.208 14.695 5.6 L 13.3 12.839 Z" fill="rgb(254,197,20)"></path><path d="M 6.365 25.063 C 6.24 25.679 6.176 26.306 6.175 26.934 C 6.174 31.062 8.865 34.707 12.81 35.922 C 16.755 37.136 21.03 35.636 23.351 32.222 L 24.736 25.002 L 22.889 21.47 L 14.541 17.67 Z" fill="rgb(0,191,179)"></path><path d="M 6.252 10.697 L 11.952 12.042 L 13.203 5.563 C 11.61 4.362 9.419 4.351 7.814 5.536 C 6.21 6.72 5.576 8.818 6.254 10.693" fill="rgb(240,78,152)"></path><path d="M 5.743 12.065 C 3.217 12.897 1.489 15.229 1.427 17.888 C 1.365 20.547 2.983 22.957 5.467 23.906 L 13.463 16.686 L 11.996 13.551 Z" fill="rgb(27,169,245)"></path><path d="M 24.795 32.292 C 25.572 32.893 26.526 33.22 27.508 33.221 C 28.977 33.217 30.351 32.497 31.191 31.293 C 32.031 30.088 32.23 28.549 31.726 27.17 L 26.026 25.84 Z" fill="rgb(147,201,14)"></path><path d="M 25.982 24.329 L 32.252 25.794 C 34.818 24.931 36.552 22.533 36.569 19.826 C 36.568 17.221 34.956 14.887 32.518 13.965 L 24.32 21.147 Z" fill="rgb(0,119,204)"></path></g></svg>