<svg xmlns="http://www.w3.org/2000/svg" xmlns:xlink="http://www.w3.org/1999/xlink" viewBox="0 0 38 40.674" overflow="visible"><path d="M 34.402 23.488 L 35.315 33.308 L 19.597 36.204 L 19.449 34.815 L 22.34 30.403 L 25.623 31.363 L 28.446 26.648 L 31.83 28.88 Z M 18.704 37.42 L 36.404 34.229 L 35.35 21.473 L 25.018 23.347 C 24.762 23.678 24.129 24.257 23.825 24.407 C 22.519 25.065 21.637 24.875 20.875 24.676 C 20.386 24.552 20.102 24.482 19.694 24.299 L 17.172 24.646 Z M 38 35.999 L 17.956 38.413 L 17.519 35.303 L 16.308 35.479 C 16.415 37.212 16.01 38.856 15.244 39.643 C 14.348 40.563 13.046 40.801 11.674 40.615 C 10.751 40.489 10.064 39.821 9.556 39.005 C 11.457 40.346 13.81 39.726 14.617 38.604 C 15.749 37.025 15.458 35.535 15.037 34.143 C 14.709 33.053 13.816 31.243 12.708 30.543 C 11.578 29.828 10.479 29.693 9.548 29.79 L 9.634 29.69 C 10.973 29.425 12.372 29.572 13.386 30.223 C 14.536 30.962 15.588 32.231 16.138 34.174 C 16.763 34.086 16.851 34.046 17.421 33.964 L 16.136 23.952 L 18.855 23.653 C 17.58 22.833 16.26 21.658 15.683 21.008 C 15.585 20.935 15.601 20.611 15.601 20.611 C 16.122 21.017 18.283 22.561 20.568 23.266 C 21.373 23.516 22.61 23.609 23.683 23.001 C 24.503 22.536 25.49 21.725 26.079 20.891 L 26.186 21.078 C 26.183 21.203 25.911 21.807 25.774 22.049 C 26.023 22.193 26.209 22.232 26.486 22.309 L 28.379 22.014 C 29.057 20.916 29.544 19.147 29.026 17.463 C 28.729 16.497 27.186 14.574 27.075 14.467 C 26.686 14.094 27.139 12.654 26.37 11.083 C 25.557 9.421 23.44 7.687 22.519 6.933 C 22.791 7.131 24.46 7.803 25.237 8.742 C 25.31 8.645 25.341 8.141 25.407 8.013 C 24.739 7.139 24.687 5.582 24.687 5.165 C 24.687 4.402 24.298 3.539 24.298 3.539 C 24.298 3.539 24.968 4.067 25.14 4.978 C 25.343 6.058 25.778 6.907 26.354 7.626 C 27.442 8.983 28.425 9.679 28.922 9.178 C 29.516 8.575 28.32 5.882 26.789 4.378 C 25.005 2.626 24.537 2.852 23.49 3.226 C 22.654 3.524 22.202 5.898 20.023 5.851 C 19.654 5.809 18.703 5.785 18.235 5.789 C 18.48 5.447 18.689 5.183 18.689 5.183 C 18.689 5.183 17.958 5.477 17.336 5.85 L 17.287 5.777 C 17.498 5.333 17.724 5.054 17.724 5.054 C 17.724 5.054 17.14 5.404 16.607 5.824 C 16.705 5.297 17.071 4.961 17.071 4.961 C 17.071 4.961 16.333 5.095 15.393 6.128 C 14.325 6.419 14.066 6.613 13.217 6.99 C 11.833 6.687 11.179 6.2 10.558 5.303 C 10.084 4.618 9.241 4.513 8.378 4.867 C 7.123 5.389 5.534 6.099 5.534 6.099 C 5.534 6.099 6.051 6.079 6.591 6.103 C 5.853 6.383 5.141 6.768 5.141 6.768 C 5.141 6.768 5.488 6.756 5.915 6.763 C 5.62 7.008 5.455 7.126 5.176 7.311 C 4.5 7.802 3.951 8.369 3.951 8.369 C 3.951 8.369 4.411 8.16 4.823 8.042 C 4.535 8.703 3.964 9.189 4.069 9.997 C 4.17 10.736 5.075 12.256 6.245 13.188 C 6.346 13.27 7.944 14.747 9.148 14.14 C 10.352 13.535 10.827 12.993 11.025 12.166 C 11.258 11.214 11.125 10.495 10.629 8.431 C 10.465 7.75 10.038 6.346 9.831 5.676 L 9.878 5.642 C 10.271 6.474 11.279 8.665 11.686 10.136 C 12.319 12.431 12.121 13.596 11.831 14.022 C 10.957 15.31 8.714 15.48 7.695 14.766 C 7.539 17.238 8.091 18.326 8.277 18.874 C 8.184 19.504 8.592 20.674 8.592 20.674 C 8.592 20.674 8.639 20.141 8.825 19.861 C 8.876 20.487 9.19 21.229 9.19 21.229 C 9.19 21.229 9.171 20.77 9.315 20.374 C 9.517 20.716 9.666 20.798 9.856 21.054 C 10.047 21.722 10.431 22.212 10.431 22.212 C 10.431 22.212 10.368 21.853 10.403 21.48 C 11.338 22.378 11.498 23.689 11.592 24.696 C 11.854 27.466 7.226 29.668 6.328 31.4 C 5.649 32.426 5.242 34.05 6.393 35.006 C 7.223 35.696 7.709 36.235 8.021 36.681 L 4.113 37.248 L 0 3.871 L 33.385 0 L 35.345 20.243 L 36.365 20.049 Z M 24.17 11.605 C 24.227 11.474 24.441 11.366 24.125 11.255 C 24.098 11.246 24.064 11.238 24.026 11.233 C 24.235 10.974 24.862 10.91 25.309 11.118 C 26.493 11.669 26.339 12.717 26.371 13.333 C 26.38 13.509 26.377 13.629 26.362 13.711 C 26.198 13.622 25.939 13.557 25.529 13.575 C 25.408 13.582 25.291 13.594 25.178 13.613 C 24.741 13.379 24.48 12.92 24.242 12.434 L 24.187 12.309 L 24.166 12.256 L 24.158 12.232 C 24.026 11.816 24.114 11.733 24.17 11.605 Z M 27.489 17.353 C 27.797 17.524 27.797 18.049 27.587 18.536 C 27.279 19.243 26.846 20.022 26.354 20.087 C 25.552 20.192 24.793 19.758 23.927 19.111 C 23.619 18.88 23.429 18.317 23.847 17.994 C 24.076 17.814 25.126 17.477 26.098 17.362 C 26.608 17.302 27.334 17.268 27.489 17.353 Z M 18.885 12.368 C 18.362 12.865 19.058 12.719 19.133 13.638 C 19.188 14.314 18.967 14.688 18.777 14.901 C 18.38 14.952 17.897 15.05 17.316 15.238 C 16.972 15.35 16.673 15.475 16.411 15.598 C 16.342 15.554 16.268 15.499 16.178 15.422 C 15.28 14.645 15.31 13.273 16.248 12.633 C 17.52 11.766 19.159 12.108 18.885 12.368 Z" fill="rgb(255, 255, 255)"></path></svg>