<svg xmlns="http://www.w3.org/2000/svg" xmlns:xlink="http://www.w3.org/1999/xlink" viewBox="0 0 38 13.329" overflow="visible"><path d="M 38 13.022 L 35.494 13.022 L 30.949 3.066 L 26.591 13.035 L 24.072 13.035 L 29.79 0.32 L 32.149 0.32 Z M 10.116 4.025 C 10.076 1.786 8.237 0.227 5.638 0.227 L 0 0.227 L 0 13.009 L 2.053 13.009 L 2.053 2.093 L 5.518 2.093 C 6.678 2.093 7.931 2.666 7.944 4.039 C 7.957 5.265 6.998 6.025 5.371 6.091 L 5.345 6.091 L 4.105 6.105 L 8.237 13.022 L 10.663 13.022 C 10.663 13.022 8.677 9.677 7.424 7.584 C 9.25 6.931 10.13 5.491 10.116 4.025 M 18.22 5.478 C 16.061 4.905 15.221 4.412 15.221 3.425 C 15.221 1.933 17.154 1.786 17.834 1.786 C 18.927 1.786 20.3 2.133 21.113 2.532 L 21.992 0.906 C 20.886 0.36 19.193 0 17.78 0 C 14.768 0 12.889 1.306 12.889 3.532 C 12.889 6.078 15.541 6.798 17.607 7.344 C 19.753 7.917 20.513 8.57 20.513 9.57 C 20.513 11.223 18.753 11.476 17.66 11.476 C 16.168 11.476 14.928 11.076 13.729 10.37 L 12.702 12.022 C 14.222 12.915 15.794 13.329 17.66 13.329 C 20.766 13.329 22.832 11.796 22.832 9.423 C 22.845 6.771 20.326 6.038 18.22 5.478 M 35.574 0.813 C 35.574 0.893 35.561 0.96 35.534 1.013 C 35.508 1.08 35.468 1.133 35.428 1.173 C 35.388 1.213 35.334 1.253 35.268 1.28 C 35.214 1.306 35.148 1.32 35.081 1.32 C 35.014 1.32 34.948 1.306 34.881 1.28 C 34.814 1.253 34.774 1.213 34.721 1.173 C 34.681 1.133 34.641 1.08 34.615 1.013 C 34.588 0.946 34.575 0.88 34.575 0.813 C 34.575 0.733 34.588 0.666 34.615 0.613 C 34.641 0.546 34.681 0.493 34.721 0.453 C 34.761 0.413 34.814 0.373 34.881 0.347 C 34.948 0.32 35.001 0.307 35.068 0.307 C 35.134 0.307 35.188 0.32 35.254 0.347 C 35.321 0.373 35.361 0.4 35.414 0.453 C 35.454 0.493 35.494 0.546 35.521 0.613 C 35.561 0.666 35.574 0.733 35.574 0.813 M 35.468 0.813 C 35.468 0.746 35.454 0.693 35.441 0.64 C 35.414 0.586 35.388 0.546 35.361 0.506 C 35.321 0.467 35.281 0.44 35.241 0.427 C 35.188 0.413 35.134 0.4 35.081 0.4 C 35.028 0.4 34.974 0.413 34.934 0.427 C 34.894 0.44 34.854 0.48 34.814 0.506 C 34.774 0.546 34.748 0.586 34.734 0.64 C 34.721 0.693 34.708 0.746 34.708 0.813 C 34.708 0.866 34.721 0.92 34.734 0.973 C 34.748 1.026 34.774 1.066 34.814 1.106 C 34.841 1.146 34.881 1.173 34.934 1.2 C 34.988 1.226 35.041 1.226 35.094 1.226 C 35.148 1.226 35.201 1.213 35.241 1.2 C 35.281 1.186 35.334 1.146 35.361 1.12 C 35.401 1.08 35.428 1.04 35.441 0.986 C 35.454 0.933 35.468 0.88 35.468 0.813 M 34.988 1.106 L 34.894 1.106 L 34.894 0.546 L 35.108 0.546 C 35.174 0.546 35.228 0.56 35.254 0.586 C 35.294 0.613 35.308 0.653 35.308 0.706 C 35.308 0.76 35.294 0.8 35.268 0.813 C 35.241 0.84 35.201 0.853 35.161 0.853 L 35.321 1.093 L 35.214 1.093 L 35.068 0.853 L 34.988 0.853 Z M 35.081 0.786 L 35.134 0.786 C 35.148 0.786 35.161 0.786 35.174 0.773 C 35.188 0.773 35.201 0.76 35.201 0.746 C 35.214 0.733 35.214 0.72 35.214 0.693 C 35.214 0.68 35.214 0.666 35.201 0.653 L 35.174 0.626 C 35.161 0.626 35.148 0.613 35.134 0.613 L 34.988 0.613 L 34.988 0.773 L 35.081 0.773 Z" fill="rgb(255,255,255)"></path></svg>