<svg xmlns="http://www.w3.org/2000/svg" xmlns:xlink="http://www.w3.org/1999/xlink" viewBox="0 0 38 5.788" overflow="visible"><g><path d="M 16.324 5.364 L 14.661 0.731 C 14.639 0.667 14.608 0.582 14.608 0.508 C 14.608 0.307 14.777 0.117 15.02 0.117 C 15.232 0.117 15.371 0.254 15.434 0.455 L 16.813 4.447 L 18.201 0.444 C 18.264 0.254 18.392 0.116 18.603 0.116 L 18.646 0.116 C 18.869 0.116 19.007 0.254 19.07 0.444 L 20.447 4.447 L 21.847 0.434 C 21.9 0.264 22.016 0.116 22.239 0.116 C 22.472 0.116 22.642 0.296 22.642 0.498 C 22.642 0.571 22.61 0.656 22.589 0.72 L 20.915 5.364 C 20.829 5.606 20.66 5.734 20.469 5.734 L 20.438 5.734 C 20.225 5.734 20.066 5.606 19.992 5.364 L 18.625 1.427 L 17.247 5.364 C 17.172 5.606 17.013 5.734 16.802 5.734 L 16.779 5.734 C 16.578 5.734 16.41 5.606 16.324 5.364 M 28.452 0.521 C 28.452 0.297 28.632 0.106 28.855 0.106 C 28.965 0.104 29.072 0.147 29.15 0.225 C 29.228 0.304 29.271 0.41 29.269 0.521 L 29.269 1.461 C 29.672 0.548 30.566 0.117 31.159 0.117 C 31.404 0.117 31.564 0.297 31.564 0.53 C 31.564 0.754 31.416 0.912 31.201 0.944 C 30.139 1.072 29.27 1.868 29.27 3.451 L 29.27 5.313 C 29.27 5.536 29.1 5.726 28.867 5.726 C 28.633 5.726 28.452 5.545 28.452 5.313 Z M 34.187 5.778 C 32.709 5.778 31.502 4.632 31.502 2.951 L 31.502 2.929 C 31.502 1.363 32.595 0.102 34.083 0.102 C 35.674 0.102 36.58 1.415 36.58 2.855 C 36.58 3.077 36.401 3.235 36.205 3.235 L 32.315 3.235 C 32.428 4.411 33.25 5.073 34.208 5.073 C 34.874 5.073 35.362 4.81 35.758 4.442 C 35.82 4.39 35.893 4.348 35.987 4.348 C 36.184 4.348 36.341 4.506 36.341 4.696 C 36.341 4.79 36.299 4.885 36.215 4.958 C 35.706 5.451 35.102 5.778 34.187 5.778 M 35.778 2.636 C 35.695 1.647 35.133 0.786 34.061 0.786 C 33.125 0.786 32.417 1.574 32.315 2.636 Z M 22.657 4.076 L 22.657 4.055 C 22.657 2.902 23.61 2.287 24.996 2.287 C 25.695 2.287 26.192 2.382 26.68 2.521 L 26.68 2.329 C 26.68 1.345 26.075 0.837 25.049 0.837 C 24.499 0.837 24.178 0.907 23.775 1.086 C 23.728 1.106 23.679 1.117 23.628 1.118 C 23.438 1.118 23.267 0.959 23.267 0.769 C 23.267 0.6 23.341 0.496 23.49 0.429 C 24.029 0.195 24.436 0.118 25.134 0.118 C 25.906 0.118 26.499 0.318 26.901 0.721 C 27.272 1.091 27.463 1.62 27.463 2.32 L 27.463 5.34 C 27.463 5.572 27.293 5.742 27.07 5.742 C 26.838 5.742 26.68 5.572 26.68 5.361 L 26.68 4.839 C 26.299 5.337 25.663 5.781 24.701 5.781 C 23.685 5.78 22.657 5.199 22.657 4.076 M 26.691 3.653 L 26.691 3.123 C 26.287 3.007 25.747 2.89 25.08 2.89 C 24.055 2.89 23.483 3.336 23.483 4.023 L 23.483 4.044 C 23.483 4.732 24.117 5.134 24.859 5.134 C 25.864 5.134 26.691 4.52 26.691 3.653 M 1.495 0.46 C 1.315 0.067 0.872 -0.111 0.459 0.073 C 0.044 0.257 -0.108 0.717 0.079 1.11 L 1.816 4.886 C 2.089 5.477 2.377 5.788 2.918 5.788 C 3.495 5.788 3.747 5.45 4.02 4.886 C 4.02 4.886 5.535 1.587 5.55 1.552 C 5.584 1.463 5.672 1.406 5.768 1.412 C 5.832 1.412 5.894 1.438 5.939 1.484 C 5.984 1.53 6.009 1.592 6.008 1.656 L 6.008 4.882 C 6.008 5.38 6.284 5.788 6.815 5.788 C 7.345 5.788 7.631 5.38 7.631 4.882 L 7.631 2.242 C 7.631 1.733 7.996 1.403 8.493 1.403 C 8.991 1.403 9.322 1.745 9.322 2.242 L 9.322 4.882 C 9.322 5.38 9.598 5.788 10.128 5.788 C 10.658 5.788 10.946 5.38 10.946 4.882 L 10.946 2.242 C 10.946 1.733 11.31 1.403 11.807 1.403 C 12.304 1.403 12.636 1.745 12.636 2.242 L 12.636 4.882 C 12.636 5.38 12.912 5.788 13.443 5.788 C 13.973 5.788 14.26 5.38 14.26 4.882 L 14.26 1.878 C 14.26 0.774 13.372 0 12.304 0 C 11.237 0 10.568 0.738 10.568 0.738 C 10.213 0.278 9.723 0.001 8.895 0.001 C 8.02 0.001 7.255 0.738 7.255 0.738 C 6.899 0.278 6.294 0.001 5.793 0.001 C 5.018 0.001 4.402 0.342 4.027 1.2 L 2.918 3.815 Z M 36.646 0.787 L 36.646 0.783 C 36.646 0.413 36.945 0.102 37.322 0.102 C 37.502 0.102 37.675 0.173 37.802 0.3 C 37.929 0.427 38.001 0.6 38 0.78 L 38 0.783 C 38 1.154 37.701 1.465 37.322 1.465 C 37.142 1.465 36.97 1.394 36.843 1.267 C 36.716 1.14 36.645 0.967 36.646 0.787 M 37.87 0.783 L 37.87 0.781 C 37.87 0.477 37.635 0.228 37.322 0.228 C 37.012 0.228 36.774 0.482 36.774 0.783 L 36.774 0.786 C 36.774 1.089 37.009 1.339 37.322 1.339 C 37.631 1.339 37.87 1.086 37.87 0.783" fill="rgb(255, 255, 255)"></path><path d="M 37.063 0.515 C 37.063 0.475 37.095 0.443 37.136 0.443 L 37.362 0.443 C 37.447 0.443 37.513 0.467 37.553 0.51 C 37.592 0.55 37.613 0.604 37.611 0.659 L 37.611 0.661 C 37.611 0.764 37.559 0.827 37.48 0.861 L 37.58 0.982 C 37.594 1 37.603 1.015 37.603 1.038 C 37.603 1.055 37.595 1.072 37.583 1.085 C 37.57 1.097 37.552 1.104 37.535 1.104 C 37.502 1.104 37.481 1.087 37.464 1.067 L 37.323 0.889 L 37.208 0.889 L 37.208 1.032 C 37.208 1.051 37.201 1.069 37.187 1.083 C 37.174 1.096 37.155 1.104 37.136 1.104 C 37.117 1.104 37.099 1.096 37.085 1.083 C 37.071 1.069 37.063 1.051 37.063 1.032 L 37.063 0.515 Z M 37.354 0.761 C 37.424 0.761 37.463 0.724 37.463 0.668 L 37.463 0.666 C 37.463 0.605 37.421 0.572 37.351 0.572 L 37.207 0.572 L 37.207 0.761 L 37.354 0.761 Z" fill="rgb(255, 255, 255)"></path></g></svg>