<svg xmlns="http://www.w3.org/2000/svg" xmlns:xlink="http://www.w3.org/1999/xlink" viewBox="0 0 38 20.028" overflow="visible"><path d="M 38 6.212 C 38 5.756 37.631 5.387 37.175 5.387 C 36.719 5.387 36.35 5.756 36.35 6.212 L 36.35 7.945 C 36.349 8.164 36.436 8.375 36.591 8.53 C 36.746 8.685 36.956 8.772 37.175 8.772 C 37.394 8.772 37.604 8.684 37.759 8.529 C 37.914 8.374 38 8.164 38 7.945 Z M 33.463 3.937 C 33.463 3.482 33.094 3.112 32.628 3.112 C 32.173 3.112 31.804 3.481 31.804 3.937 L 31.804 7.945 C 31.803 8.164 31.89 8.374 32.045 8.529 C 32.199 8.685 32.409 8.772 32.628 8.772 C 33.094 8.772 33.463 8.403 33.463 7.945 Z M 28.917 0.824 C 28.917 0.606 28.831 0.396 28.676 0.241 C 28.521 0.087 28.312 0 28.093 0 C 27.874 0 27.664 0.087 27.51 0.241 C 27.355 0.396 27.268 0.606 27.268 0.824 L 27.268 9.592 C 27.261 9.892 27.416 10.172 27.674 10.324 C 27.933 10.476 28.253 10.476 28.511 10.324 C 28.77 10.172 28.925 9.892 28.917 9.592 Z M 24.37 3.937 C 24.364 3.486 23.997 3.124 23.546 3.124 C 23.095 3.124 22.728 3.486 22.721 3.937 L 22.721 7.945 C 22.721 8.164 22.808 8.374 22.962 8.529 C 23.117 8.684 23.327 8.772 23.546 8.772 C 23.765 8.772 23.975 8.685 24.13 8.53 C 24.284 8.374 24.371 8.164 24.37 7.945 Z M 19.825 6.212 C 19.825 5.757 19.457 5.389 19.003 5.388 C 18.547 5.388 18.175 5.757 18.175 6.212 L 18.175 7.945 C 18.176 8.402 18.546 8.772 19.003 8.772 C 19.456 8.772 19.825 8.403 19.825 7.945 Z M 15.286 3.937 C 15.286 3.482 14.914 3.112 14.459 3.112 C 14.003 3.112 13.631 3.482 13.631 3.937 L 13.631 7.945 C 13.632 8.402 14.002 8.772 14.459 8.772 C 14.915 8.772 15.286 8.402 15.286 7.945 Z M 10.742 0.824 C 10.742 0.369 10.37 0 9.915 0 C 9.459 0 9.088 0.369 9.088 0.824 L 9.088 9.592 C 9.088 10.049 9.458 10.419 9.915 10.419 C 10.134 10.419 10.345 10.332 10.5 10.177 C 10.655 10.022 10.742 9.812 10.742 9.592 Z M 6.198 3.937 C 6.198 3.482 5.827 3.112 5.371 3.112 C 4.915 3.112 4.544 3.482 4.544 3.937 L 4.544 7.945 C 4.544 8.402 4.914 8.772 5.371 8.772 C 5.828 8.772 6.198 8.402 6.198 7.945 Z M 1.654 6.212 C 1.654 5.757 1.283 5.388 0.827 5.388 C 0.372 5.388 0 5.757 0 6.212 L 0 7.945 C 0.009 8.395 0.377 8.755 0.827 8.755 C 1.278 8.755 1.645 8.395 1.654 7.945 Z M 18.733 13.399 C 18.683 13.386 17.92 13.189 17.108 13.189 C 15.573 13.189 14.648 14.018 14.648 15.253 C 14.648 16.346 15.421 16.892 16.35 17.185 C 16.453 17.219 16.604 17.266 16.705 17.3 C 17.119 17.43 17.449 17.623 17.449 17.957 C 17.449 18.332 17.067 18.574 16.238 18.574 C 15.51 18.574 14.812 18.366 14.665 18.328 L 14.665 19.848 C 14.747 19.865 15.577 20.028 16.463 20.028 C 17.738 20.028 19.197 19.471 19.197 17.812 C 19.197 17.008 18.704 16.267 17.623 15.924 L 17.163 15.777 C 16.889 15.691 16.399 15.55 16.399 15.148 C 16.399 14.831 16.762 14.607 17.43 14.607 C 18.006 14.607 18.708 14.801 18.733 14.809 Z M 32.814 16.609 C 32.814 17.569 32.078 18.347 31.091 18.347 C 30.102 18.347 29.368 17.569 29.368 16.609 C 29.368 15.65 30.102 14.872 31.091 14.872 C 32.078 14.872 32.814 15.65 32.814 16.609 M 31.091 13.191 C 29.06 13.191 27.603 14.723 27.603 16.609 C 27.603 18.498 29.06 20.028 31.091 20.028 C 33.121 20.028 34.58 18.498 34.58 16.609 C 34.58 14.723 33.121 13.191 31.091 13.191 M 8.457 13.428 C 8.3 13.381 7.721 13.191 6.937 13.191 C 4.91 13.191 3.421 14.637 3.421 16.609 C 3.421 18.736 5.064 20.028 6.937 20.028 C 7.682 20.028 8.25 19.852 8.457 19.793 L 8.457 18.021 C 8.385 18.061 7.84 18.371 7.057 18.371 C 5.947 18.371 5.231 17.59 5.231 16.609 C 5.231 15.597 5.978 14.847 7.057 14.847 C 7.854 14.847 8.39 15.165 8.457 15.2 Z M 25.849 13.428 C 25.691 13.381 25.112 13.191 24.33 13.191 C 22.3 13.191 20.811 14.637 20.811 16.609 C 20.811 18.736 22.456 20.028 24.33 20.028 C 25.07 20.028 25.639 19.852 25.849 19.793 L 25.849 18.021 C 25.776 18.061 25.23 18.371 24.447 18.371 C 23.338 18.371 22.622 17.59 22.622 16.609 C 22.622 15.597 23.37 14.847 24.447 14.847 C 25.244 14.847 25.781 15.165 25.849 15.2 Z M 12.414 19.911 L 10.747 19.911 L 10.747 13.308 L 12.414 13.308 Z" fill="rgb(4,159,217)"></path></svg>