<svg style="width:100%;height:100%;" viewBox="0 0 20 20" preserveAspectRatio="none" width="100%" height="100%" xmlns="http://www.w3.org/2000/svg"><defs><svg width="20" height="20" viewBox="0 0 20 20" fill="none" id="svg-422787054_1517">
<path d="M16.7337 13.7451C16.7337 12.4228 15.6435 11.3509 14.2987 11.3509C12.9539 11.3509 11.8637 12.4228 11.8637 13.7451C11.8637 15.0674 12.9539 16.1394 14.2987 16.1394V17.097C12.4159 17.097 10.8897 15.5963 10.8897 13.7451C10.8897 11.8939 12.4159 10.3932 14.2987 10.3932C16.1814 10.3932 17.7077 11.8939 17.7077 13.7451C17.7077 15.5963 16.1814 17.097 14.2987 17.097V16.1394C15.6435 16.1394 16.7337 15.0674 16.7337 13.7451Z" fill="#EDEDED"></path>
<path d="M7.96767 16.1394V17.097H5.04566V16.1394H7.96767ZM8.94167 15.1817V12.3086C8.94167 11.8127 8.5583 11.405 8.06707 11.356L7.96767 11.3509H5.04566C4.5413 11.3509 4.12669 11.7278 4.07689 12.2108L4.07166 12.3086V15.1817C4.07166 15.7106 4.50774 16.1394 5.04566 16.1394V17.097L4.94531 17.0947C3.94932 17.045 3.15057 16.2596 3.10003 15.2803L3.09766 15.1817V12.3086C3.09766 11.2507 3.96981 10.3932 5.04566 10.3932H7.96767C9.04352 10.3932 9.91568 11.2507 9.91568 12.3086V15.1817C9.91568 16.2064 9.09724 17.0434 8.06802 17.0947L7.96767 17.097V16.1394C8.5056 16.1394 8.94167 15.7106 8.94167 15.1817Z" fill="#EDEDED"></path>
<path d="M9.5314 2.52939C9.89035 1.82354 10.915 1.82353 11.2739 2.52939L14.0809 8.0497C14.3944 8.66659 13.9623 9.38896 13.2766 9.43341L13.2096 9.43574V8.47805L10.4027 2.95774L7.59576 8.47805V9.43574L7.5287 9.43341C6.86509 9.39044 6.43889 8.71241 6.69642 8.10956L6.72448 8.0497L9.5314 2.52939ZM13.2096 8.47805V9.43574H7.59576V8.47805H13.2096Z" fill="#EDEDED"></path>
</svg></defs><use href="#svg-422787054_1517"></use></svg>