<svg style="width:100%;height:100%;" viewBox="0 0 20 20" preserveAspectRatio="none" width="100%" height="100%" xmlns="http://www.w3.org/2000/svg"><defs><svg width="20" height="20" viewBox="0 0 20 20" fill="none" id="svg-374688210_2389">
<path fill-rule="evenodd" clip-rule="evenodd" d="M9.68264 3C10.4325 3 11.1564 3.11505 11.8372 3.32886C12.1012 3.41179 12.2483 3.69317 12.1654 3.95721C12.0824 4.22125 11.8011 4.36769 11.537 4.28476C10.9523 4.10111 10.3295 4.00223 9.68264 4.00223C6.26929 4.00223 3.50223 6.76929 3.50223 10.1826C3.50223 11.8294 4.14747 13.3246 5.19741 14.4323L5.27897 14.2901C5.96295 13.0932 7.23586 12.3542 8.61451 12.3541H10.7508C12.1294 12.3542 13.4023 13.0932 14.0863 14.2901L14.1672 14.4323C15.2173 13.3245 15.8631 11.8295 15.8631 10.1826C15.8631 9.53582 15.7635 8.91302 15.5799 8.32826C15.4971 8.06426 15.6441 7.78282 15.9081 7.69991C16.1721 7.61699 16.4535 7.76407 16.5364 8.02811C16.7502 8.70886 16.8653 9.43278 16.8653 10.1826C16.8653 14.1495 13.6495 17.3653 9.68264 17.3653C5.71577 17.3653 2.5 14.1495 2.5 10.1826C2.5 6.21578 5.71578 3 9.68264 3ZM8.61451 13.3564C7.59554 13.3564 6.65494 13.9026 6.14939 14.7873L5.96082 15.1161C6.99617 15.8984 8.28497 16.3631 9.68264 16.3631C11.0801 16.3631 12.3685 15.8982 13.4038 15.1161L13.2159 14.7873C12.7103 13.9026 11.7697 13.3564 10.7508 13.3564H8.61451Z" fill="#EDEDED"></path>
<path fill-rule="evenodd" clip-rule="evenodd" d="M9.68264 6.34076C11.0665 6.34076 12.1882 7.46255 12.1882 8.84634C12.1882 10.2302 11.0665 11.3519 9.68264 11.3519C8.29882 11.3519 7.17707 10.2302 7.17707 8.84634C7.17707 7.46255 8.29882 6.34076 9.68264 6.34076ZM9.68264 7.34299C8.85234 7.34299 8.1793 8.01606 8.1793 8.84634C8.1793 9.67664 8.85234 10.3497 9.68264 10.3497C10.5129 10.3497 11.186 9.67664 11.186 8.84634C11.186 8.01606 10.5129 7.34299 9.68264 7.34299Z" fill="#EDEDED"></path>
<path fill-rule="evenodd" clip-rule="evenodd" d="M13.8508 3.41629C13.9631 2.86162 14.7563 2.86162 14.8687 3.41629L14.868 3.41694C15.0314 4.21273 15.6543 4.83459 16.4503 4.99728C17.0036 5.11051 17.0036 5.90063 16.4503 6.01386C15.6543 6.17655 15.0314 6.79842 14.868 7.5942L14.8687 7.59485C14.7563 8.14952 13.9631 8.14952 13.8508 7.59485C13.6873 6.79913 13.0651 6.17654 12.2691 6.01386C11.7159 5.90061 11.7159 5.11054 12.2691 4.99728C13.0651 4.8346 13.6873 4.21201 13.8508 3.41629ZM14.3597 4.72519C14.1494 5.03093 13.8851 5.2953 13.5793 5.50557C13.8849 5.71574 14.1495 5.97975 14.3597 6.2853C14.5698 5.9799 14.834 5.7157 15.1394 5.50557C14.8339 5.29535 14.5699 5.03078 14.3597 4.72519Z" fill="#EDEDED"></path>
</svg></defs><use href="#svg-374688210_2389"></use></svg>