<svg style="width:100%;height:100%;" viewBox="0 0 20 20" preserveAspectRatio="none" width="100%" height="100%" xmlns="http://www.w3.org/2000/svg"><defs><svg width="20" height="20" viewBox="0 0 20 20" fill="none" id="svg159653846_4979">
<path d="M17.7591 2.53757C17.7591 2.24054 17.5181 2 17.2213 2H11.7852V4.16603C11.92 4.0908 12.0753 4.04816 12.2404 4.04816C12.7587 4.04816 13.1791 4.46833 13.1791 4.98699C13.1791 5.50514 12.7589 5.92554 12.2404 5.92554C12.0753 5.92554 11.92 5.88267 11.7852 5.80794V7.97374H13.9512C13.8762 8.1086 13.8333 8.26383 13.8333 8.42887C13.8333 8.9475 14.2535 9.36769 14.7721 9.36769C15.2905 9.36769 15.7107 8.9475 15.7107 8.42887C15.7107 8.26383 15.6678 8.1086 15.5931 7.97374H17.7591V2.53757Z" fill="#EDEDED"></path>
<path d="M15.3338 10.0697H12.6048C12.5092 10.0697 12.4208 10.1202 12.3725 10.2021L12.3751 10.1976L12.372 10.2026C12.3473 10.2446 12.3348 10.292 12.3348 10.3392C12.3348 10.3842 12.3463 10.4297 12.3689 10.4705L12.5409 10.7802C12.5794 10.8499 12.5984 10.9232 12.5986 11.0032C12.5984 11.1268 12.5509 11.2408 12.4637 11.3285C12.3761 11.4157 12.2618 11.4632 12.1384 11.4636C12.0148 11.4631 11.9006 11.4157 11.8126 11.3285L11.813 11.329C11.7255 11.2409 11.6782 11.1266 11.678 11.0032C11.6782 10.9235 11.6971 10.8499 11.7356 10.78L11.9077 10.4705C11.9304 10.4297 11.9417 10.3845 11.9417 10.3392C11.9417 10.292 11.9293 10.2446 11.9042 10.2022C11.8557 10.12 11.7673 10.0697 11.6719 10.0697H9.62995V8.97617C9.99898 8.9704 10.3475 8.825 10.6086 8.56341C10.876 8.29679 11.024 7.93915 11.0238 7.56139C11.024 7.18313 10.8758 6.82549 10.6086 6.5591C10.3477 6.29748 9.9991 6.15231 9.62995 6.14658V4.36569C9.62984 4.2167 9.50908 4.09595 9.3601 4.09595H3.71524C3.44456 4.09574 3.18764 4.20185 2.99672 4.39324C2.80712 4.58299 2.69945 4.84338 2.69922 5.11215V15.9842C2.69898 16.2547 2.80533 16.5115 2.99672 16.7026C3.18647 16.8921 3.44647 16.9999 3.71524 17.0002H14.5885C14.8566 16.9999 15.1167 16.8921 15.3062 16.7026C15.4976 16.5115 15.6037 16.2549 15.6035 15.9842V10.3394C15.6035 10.1904 15.4828 10.0697 15.3338 10.0697ZM3.53355 5.11215C3.53355 5.04986 3.56255 5.00748 3.58625 4.98375C3.61081 4.95931 3.65307 4.93008 3.71524 4.93008H8.79556V7.09467C8.79556 7.1469 8.82323 7.19504 8.86814 7.22162C8.89114 7.23504 8.91687 7.24177 8.94275 7.24177C8.96743 7.24177 8.99198 7.23577 9.01428 7.22333L9.32389 7.05132C9.41121 7.00291 9.50632 6.97824 9.60646 6.97824C9.76203 6.97824 9.90852 7.03885 10.0186 7.14881C10.1288 7.25924 10.1894 7.40584 10.1894 7.56133C10.1894 7.71678 10.1288 7.86318 10.0188 7.97335C9.90852 8.08354 9.76203 8.14416 9.60646 8.14416C9.5062 8.14416 9.41121 8.11948 9.32401 8.07107L9.01416 7.89906C8.99201 7.88662 8.96734 7.88062 8.94278 7.88062C8.9169 7.88062 8.89114 7.88733 8.86817 7.901C8.82326 7.92735 8.79559 7.9755 8.79559 8.02773V10.1923H7.45527C7.45792 10.159 7.45921 10.1257 7.45921 10.0929C7.45921 9.74677 7.32446 9.42168 7.08002 9.17759C6.8358 8.93299 6.51072 8.79839 6.16457 8.79839C5.81855 8.79839 5.49349 8.93302 5.24936 9.17735C5.00468 9.42145 4.86993 9.74677 4.87005 10.0927C4.87005 10.1257 4.87134 10.1588 4.87399 10.1923H3.53355V5.11215ZM8.79559 16.1661H3.71524C3.65307 16.1661 3.61081 16.1368 3.58684 16.1131C3.56255 16.0887 3.53355 16.0463 3.53355 15.9842V10.9036H5.69803C5.75014 10.9036 5.7984 10.876 5.82487 10.8312C5.85134 10.7862 5.85207 10.7306 5.82669 10.6851L5.65483 10.3754C5.6063 10.2879 5.58174 10.1928 5.58163 10.0929C5.58174 9.93743 5.6425 9.79085 5.7522 9.68063C5.86272 9.5707 6.00923 9.50982 6.16457 9.50982C6.31991 9.50982 6.46643 9.5707 6.57659 9.68039C6.68667 9.79083 6.7474 9.93743 6.74752 10.0927C6.7474 10.193 6.7227 10.2881 6.67467 10.3751L6.50242 10.6848C6.47701 10.7306 6.47778 10.7862 6.50425 10.831C6.53071 10.876 6.579 10.9035 6.63109 10.9035H8.79556V12.2443C8.76224 12.2417 8.7291 12.2405 8.69628 12.2405C8.35001 12.2405 8.02493 12.3751 7.78107 12.6194C7.53627 12.8638 7.40163 13.1889 7.40187 13.5348C7.40163 13.8807 7.53627 14.206 7.78086 14.4501C8.02496 14.6947 8.35004 14.8293 8.69631 14.8293C8.72936 14.8293 8.76253 14.8281 8.79559 14.8255V16.1661ZM14.7694 15.9842C14.7694 16.0463 14.7402 16.0884 14.7162 16.1126C14.6918 16.1368 14.6496 16.1661 14.5876 16.1661H9.50729V14.0015C9.50729 13.9493 9.47976 13.9011 9.43471 13.8748C9.41171 13.8611 9.38595 13.8544 9.3601 13.8544C9.33554 13.8544 9.31087 13.8604 9.28869 13.8729L8.9786 14.0449C8.89152 14.0932 8.79653 14.1179 8.69628 14.1179C8.54094 14.1179 8.39442 14.0571 8.28426 13.9473C8.17418 13.8372 8.11345 13.6905 8.11333 13.5351C8.11345 13.3794 8.17421 13.233 8.28414 13.1228C8.39425 13.0128 8.5407 12.952 8.69631 12.9518C8.79585 12.9518 8.89093 12.9764 8.97863 13.0248L9.2886 13.1971C9.31089 13.2095 9.33542 13.2155 9.36013 13.2155C9.38598 13.2155 9.41174 13.2088 9.43474 13.1954C9.47964 13.1688 9.50732 13.1207 9.50732 13.0684V10.9036H10.8477C10.8451 10.9369 10.8438 10.9702 10.8438 11.0032C10.8437 11.3489 10.9783 11.674 11.2227 11.9183C11.4671 12.1632 11.7923 12.2978 12.1383 12.2978C12.4843 12.2978 12.8094 12.1632 13.0538 11.9186C13.2983 11.6745 13.4327 11.3494 13.4327 11.0033C13.4327 10.9702 13.4315 10.9372 13.4289 10.9036H14.7694V15.9842H14.7694Z" fill="#EDEDED"></path>
</svg></defs><use href="#svg159653846_4979"></use></svg>