<svg style="width:100%;height:100%;" viewBox="0 0 20 20" preserveAspectRatio="none" width="100%" height="100%" xmlns="http://www.w3.org/2000/svg"><defs><svg width="20" height="20" viewBox="0 0 20 20" fill="none" id="svg-1864837579_7472">
<path fill-rule="evenodd" clip-rule="evenodd" d="M11.2382 6.44446C11.3168 6.36592 11.4443 6.36586 11.5228 6.44446C11.6013 6.52305 11.6014 6.65052 11.5228 6.72904L11.1489 7.10224C11.3142 7.22352 11.474 7.38647 11.6244 7.59576L11.6287 7.6008L11.6316 7.60657C11.736 7.77343 11.8164 7.94293 11.8759 8.11233C12.0135 8.0765 12.2635 7.88848 12.2635 7.45311C12.2635 7.342 12.3534 7.2521 12.4645 7.2521C12.5755 7.25218 12.6655 7.34205 12.6655 7.45311C12.6655 8.01756 12.3306 8.41587 11.9782 8.50355C12.0073 8.66734 12.0195 8.82864 12.0178 8.98482H12.4674C12.5785 8.98482 12.6684 9.07542 12.6684 9.18655C12.6682 9.29753 12.5784 9.38756 12.4674 9.38756H11.9832C11.9535 9.57007 11.9062 9.74214 11.8478 9.89837C12.037 9.96695 12.1779 10.1118 12.2714 10.2651C12.3964 10.4701 12.4576 10.7211 12.4486 10.9279C12.4438 11.0388 12.3499 11.125 12.239 11.1203C12.128 11.1154 12.0418 11.0216 12.0466 10.9106C12.0521 10.7854 12.0121 10.6133 11.9277 10.4747C11.8571 10.3588 11.7702 10.2881 11.6734 10.2665C11.6258 10.3469 11.5754 10.4189 11.5243 10.4805C11.3027 10.7739 10.923 11.0491 10.4738 11.1109C10.0079 11.175 9.50021 11.0046 9.05668 10.4632L9.05091 10.456L9.04515 10.4474C9.00361 10.3851 8.9651 10.3232 8.92988 10.2615C8.82928 10.284 8.74008 10.356 8.66835 10.4719C8.58193 10.6115 8.54176 10.785 8.54731 10.9106C8.55217 11.0216 8.46593 11.1154 8.35494 11.1203C8.24407 11.1251 8.15036 11.0395 8.14529 10.9286C8.13607 10.7199 8.19835 10.4665 8.32613 10.26C8.42116 10.1065 8.56356 9.96303 8.75336 9.89404C8.68511 9.72068 8.63944 9.55122 8.61143 9.38756H8.1316C8.02069 9.38743 7.93075 9.29746 7.93059 9.18655C7.93059 9.0755 8.02059 8.98495 8.1316 8.98482H8.57613C8.5751 8.81578 8.59124 8.65576 8.61863 8.50715C8.37104 8.44069 8.19868 8.26764 8.09197 8.08568C7.96338 7.86635 7.91219 7.6066 7.93203 7.43077C7.94455 7.32036 8.04424 7.24103 8.15466 7.25354C8.25115 7.26459 8.32358 7.34196 8.33189 7.4351V7.55109C8.33974 7.64052 8.37165 7.76725 8.43924 7.88251C8.50658 7.99723 8.5983 8.08342 8.72094 8.11738C8.78802 7.92325 8.86842 7.76255 8.93852 7.64475C9.05637 7.44676 9.23165 7.25418 9.44573 7.1044L9.07037 6.72904C8.99176 6.65049 8.99182 6.52306 9.07037 6.44446C9.14891 6.36587 9.27635 6.36592 9.35495 6.44446L9.78867 6.87746C9.79828 6.88707 9.80663 6.89754 9.81389 6.90844C9.89766 6.87697 9.98502 6.85304 10.0747 6.83711C10.3064 6.79599 10.5468 6.81262 10.7836 6.90195C10.7898 6.89339 10.7968 6.88517 10.8045 6.87746L11.2382 6.44446ZM11.4796 8.20023C11.1378 8.393 10.8055 8.48481 10.4976 8.51147V9.18655C10.4974 9.2975 10.4076 9.3875 10.2966 9.38756C10.1856 9.38756 10.0957 9.29753 10.0956 9.18655V8.51075C9.69402 8.47437 9.35449 8.33728 9.11864 8.20023C8.94131 8.67754 8.84714 9.41964 9.3744 10.2161C9.73816 10.6561 10.11 10.7543 10.4191 10.7118C10.7448 10.6669 11.0361 10.4607 11.2051 10.2355L11.208 10.2312L11.2116 10.2269C11.3712 10.0367 11.5444 9.67349 11.5985 9.23194C11.6378 8.91074 11.6135 8.55489 11.4796 8.20023ZM10.1446 7.23337C9.78719 7.29696 9.46591 7.55503 9.29299 7.8364C9.6768 8.07059 10.4502 8.32801 11.3016 7.83784C11.2992 7.83381 11.2969 7.82962 11.2944 7.82559C10.9026 7.2833 10.4865 7.17265 10.1446 7.23337Z" fill="#EDEDED"></path>
<path fill-rule="evenodd" clip-rule="evenodd" d="M10.2988 4.75857C12.5071 4.75875 14.2972 6.54739 14.2973 8.75427C14.2973 9.91439 13.8028 10.9594 13.0128 11.6894L13.6021 12.2788L13.6914 12.1894C13.9279 11.9648 14.3023 11.9684 14.5344 12.2003L18.618 16.2817C18.8392 16.5142 18.8391 16.8798 18.618 17.1124L18.6072 17.1239L18.0942 17.6369L18.0827 17.6477C17.8499 17.8687 17.484 17.8687 17.2512 17.6477L13.1669 13.5663C12.9314 13.3307 12.9313 12.9488 13.1669 12.7132L13.2462 12.634L12.6201 12.0086C11.9656 12.4758 11.1644 12.7506 10.2988 12.7507C8.09019 12.7507 6.29946 10.9614 6.29946 8.75427C6.29962 6.54728 8.09029 4.75857 10.2988 4.75857ZM14.1785 12.5554C14.1392 12.5163 14.0751 12.5162 14.0358 12.5554L13.5228 13.0684C13.4836 13.1077 13.4836 13.1718 13.5228 13.2111L17.5956 17.281C17.6349 17.3202 17.699 17.3202 17.7383 17.281L18.2513 16.768C18.2905 16.7287 18.2905 16.6653 18.2513 16.6261L14.1785 12.5554ZM10.2988 5.3616C8.42365 5.3616 6.90337 6.88043 6.90321 8.75427C6.90321 10.6282 8.42356 12.1477 10.2988 12.1477C12.1738 12.1475 13.6936 10.6281 13.6936 8.75427C13.6934 6.88054 12.1737 5.36178 10.2988 5.3616Z" fill="#EDEDED"></path>
<path fill-rule="evenodd" clip-rule="evenodd" d="M16.435 1.7002C16.921 1.70034 17.3146 2.09413 17.3146 2.57988C17.3146 3.06564 16.921 3.45943 16.435 3.45957C16.2992 3.45957 16.1701 3.42871 16.0553 3.37384L14.7793 4.64906L15.6727 5.16419C15.8594 5.27194 15.9745 5.4711 15.9746 5.68653V8.41133H17.2757C17.384 8.04796 17.7214 7.78236 18.1201 7.78236C18.606 7.78254 18.9996 8.17647 18.9998 8.66205C18.9998 9.14779 18.6061 9.54228 18.1201 9.54246C17.7214 9.54246 17.384 9.27686 17.2757 8.91349H15.9746V11.6131C15.9746 11.8285 15.8594 12.0277 15.6727 12.1354L15.618 12.1671C15.4998 12.2351 15.3506 12.2152 15.2541 12.1188C15.1138 11.9786 15.145 11.7432 15.3168 11.6441L15.3708 11.6131V5.68653L10.2354 2.72326L5.09916 5.68653V11.6131L10.2354 14.5763L12.1849 13.451C12.3031 13.3828 12.4522 13.4028 12.5488 13.4993C12.689 13.6394 12.6584 13.874 12.4868 13.9733L10.5365 15.0987L10.5192 15.1081C10.3417 15.2028 10.1283 15.2028 9.95077 15.1081L9.93348 15.0987L6.01776 12.8393L4.43778 14.4178C4.51734 14.55 4.56381 14.7048 4.56386 14.8703C4.56386 15.3561 4.16952 15.7499 3.68345 15.75C3.19729 15.75 2.80304 15.3561 2.80304 14.8703C2.80319 14.3846 3.19738 13.9906 3.68345 13.9906C3.82071 13.9906 3.95095 14.0225 4.06674 14.0785L5.56674 12.5792L4.79729 12.1354C4.61648 12.031 4.50308 11.8409 4.49613 11.6332L4.49541 11.6131V8.91349H3.1186C3.01039 9.27682 2.67364 9.5424 2.27494 9.54246C1.78878 9.54246 1.39453 9.14789 1.39453 8.66205C1.39472 8.17637 1.78889 7.78236 2.27494 7.78236C2.67364 7.78242 3.01039 8.048 3.1186 8.41133H4.49541V5.68653C4.49546 5.4778 4.6035 5.28411 4.78 5.17428L4.79729 5.16419L5.45723 4.78379L4.05161 3.37888C3.93958 3.43055 3.81492 3.45954 3.68345 3.45957C3.19729 3.45957 2.80304 3.06573 2.80304 2.57988C2.80305 2.09404 3.19729 1.7002 3.68345 1.7002C4.16952 1.7003 4.56385 2.09411 4.56386 2.57988C4.56386 2.75108 4.5145 2.91088 4.42985 3.04602L5.90825 4.5237L9.93348 2.20092C10.1201 2.09338 10.3499 2.0934 10.5365 2.20092L14.3283 4.38897L15.6821 3.03594C15.6012 2.90293 15.5546 2.7469 15.5546 2.57988C15.5546 2.09404 15.9488 1.7002 16.435 1.7002ZM3.68345 14.4935C3.47519 14.4935 3.30608 14.6622 3.30593 14.8703C3.30593 15.0785 3.47509 15.2478 3.68345 15.2478C3.89171 15.2477 4.06025 15.0785 4.06025 14.8703C4.0601 14.6623 3.89162 14.4936 3.68345 14.4935ZM2.27494 8.28525C2.0667 8.28525 1.89761 8.45399 1.89742 8.66205C1.89742 8.87027 2.06658 9.03957 2.27494 9.03957C2.48324 9.0395 2.65174 8.87023 2.65174 8.66205C2.65155 8.45404 2.48312 8.28532 2.27494 8.28525ZM18.1201 8.28525C17.9119 8.28525 17.7428 8.45399 17.7426 8.66205C17.7426 8.87027 17.9118 9.03957 18.1201 9.03957C18.3283 9.0394 18.4969 8.87016 18.4969 8.66205C18.4967 8.4541 18.3282 8.28542 18.1201 8.28525ZM3.68345 2.20308C3.4751 2.20308 3.30593 2.37167 3.30593 2.57988C3.30593 2.7881 3.47509 2.95669 3.68345 2.95669C3.89171 2.95658 4.06025 2.78804 4.06025 2.57988C4.06025 2.37174 3.89171 2.20319 3.68345 2.20308ZM16.435 2.20308C16.2266 2.20308 16.0574 2.37167 16.0574 2.57988C16.0574 2.7881 16.2266 2.95669 16.435 2.95669C16.6432 2.95655 16.8118 2.78802 16.8118 2.57988C16.8118 2.37176 16.6432 2.20322 16.435 2.20308Z" fill="#EDEDED"></path>
</svg></defs><use href="#svg-1864837579_7472"></use></svg>