<svg style="width:100%;height:100%;" viewBox="0 0 20 20" preserveAspectRatio="none" width="100%" height="100%" xmlns="http://www.w3.org/2000/svg"><defs><svg width="20" height="20" viewBox="0 0 20 20" fill="none" id="svg-1079367842_1916">
<path d="M7.62269 15.6102H5.1017C4.8257 15.6102 4.5524 15.5558 4.29741 15.4502C4.04242 15.3446 3.81073 15.1898 3.61557 14.9946C3.42041 14.7995 3.2656 14.5678 3.15998 14.3128C3.05436 14.0578 3 13.7845 3 13.5085V5.1017C3 4.54429 3.22143 4.00972 3.61557 3.61557C4.00972 3.22143 4.54429 3 5.1017 3L13.5085 3C13.7845 3 14.0578 3.05436 14.3128 3.15998C14.5678 3.2656 14.7995 3.42041 14.9946 3.61557C15.1898 3.81073 15.3446 4.04242 15.4502 4.29741C15.5558 4.5524 15.6102 4.8257 15.6102 5.1017V12.6741L17.5679 16.0904C17.7102 16.3387 17.7487 16.633 17.6751 16.9095C17.6015 17.186 17.4218 17.4222 17.1749 17.5669C17.012 17.6615 16.8281 17.7119 16.639 17.7119H8.27526C7.68364 17.7119 7.2034 17.2285 7.2034 16.6306C7.2034 16.4414 7.25279 16.2554 7.34736 16.0904L7.62269 15.6102ZM14.5593 10.8414V5.1017C14.5593 4.9637 14.5322 4.82705 14.4794 4.69956C14.4265 4.57206 14.3491 4.45622 14.2516 4.35864C14.154 4.26106 14.0381 4.18365 13.9106 4.13084C13.7831 4.07803 13.6465 4.05085 13.5085 4.05085H5.1017C4.823 4.05085 4.55571 4.16156 4.35864 4.35864C4.16156 4.55571 4.05085 4.823 4.05085 5.1017V13.5085C4.05085 13.6465 4.07803 13.7831 4.13084 13.9106C4.18365 14.0381 4.26106 14.154 4.35864 14.2516C4.45622 14.3491 4.57206 14.4265 4.69956 14.4794C4.82705 14.5322 4.9637 14.5593 5.1017 14.5593H8.22482L11.5287 8.79438C11.622 8.63031 11.7571 8.49387 11.9203 8.39897C12.0835 8.30406 12.2689 8.25406 12.4576 8.25406C12.6464 8.25406 12.8318 8.30406 12.995 8.39897C13.1581 8.49387 13.2933 8.63031 13.3866 8.79438L14.5593 10.8414ZM5.1017 10.3559H7.2034V11.4068H5.1017V10.3559ZM5.1017 8.25425H9.3051V9.3051H5.1017V8.25425ZM5.1017 6.15255H13.5085V7.2034H5.1017V6.15255ZM12.4576 9.3051L8.25425 16.661H16.661L12.4576 9.3051ZM11.9322 11.4068H12.9831V14.0339H11.9322V11.4068ZM11.9322 14.5593H12.9831V15.6102H11.9322V14.5593Z" fill="#EDEDED"></path>
</svg></defs><use href="#svg-1079367842_1916"></use></svg>