<svg style="width:100%;height:100%;" viewBox="0 0 14 15" preserveAspectRatio="none" width="100%" height="100%" xmlns="http://www.w3.org/2000/svg"><defs><svg width="14" height="15" viewBox="0 0 14 15" fill="none" id="svg-408446244_1542">
<path d="M11.558 12.1165H9.54814V8.99985C9.54814 8.25667 9.53474 7.29996 8.50277 7.29996C7.45594 7.29996 7.29578 8.10969 7.29578 8.94574V12.1163H5.28585V5.70724H7.21537V6.5831H7.24239C7.43549 6.25619 7.71452 5.98726 8.04977 5.80495C8.38502 5.62264 8.76394 5.53378 9.14616 5.54782C11.1833 5.54782 11.5589 6.87457 11.5589 8.60058L11.558 12.1165ZM3.01801 4.83117C2.78732 4.83122 2.56179 4.76352 2.36996 4.63666C2.17813 4.50979 2.02861 4.32945 1.94029 4.11843C1.85197 3.90742 1.82883 3.67521 1.87379 3.45118C1.91875 3.22714 2.02981 3.02134 2.1929 2.8598C2.35599 2.69826 2.5638 2.58823 2.79005 2.54362C3.0163 2.49902 3.25081 2.52185 3.46396 2.60923C3.6771 2.6966 3.85929 2.84459 3.98749 3.03449C4.11569 3.22439 4.18414 3.44766 4.18418 3.67608C4.18421 3.82774 4.15406 3.97792 4.09547 4.11805C4.03688 4.25818 3.95099 4.38551 3.84271 4.49277C3.73442 4.60003 3.60584 4.68512 3.46434 4.74318C3.32284 4.80125 3.17118 4.83115 3.01801 4.83117ZM4.02296 12.1165H2.01096V5.70724H4.02296V12.1165ZM12.5601 0.673278H1.00098C0.738622 0.670347 0.485808 0.770669 0.298114 0.952199C0.110421 1.13373 0.00320195 1.38162 0 1.64139V13.1341C0.00309236 13.394 0.110248 13.6421 0.297935 13.8238C0.485622 14.0055 0.738491 14.106 1.00098 14.1033H12.5601C12.8231 14.1065 13.0767 14.0063 13.2651 13.8246C13.4535 13.6429 13.5614 13.3945 13.565 13.1341V1.64056C13.5613 1.38027 13.4533 1.1321 13.2649 0.950577C13.0765 0.769051 12.823 0.669016 12.5601 0.672449" fill="white"></path>
</svg></defs><use href="#svg-408446244_1542"></use></svg>