<?xml version="1.0" encoding="UTF-8"?><svg id="Layer_2" xmlns="http://www.w3.org/2000/svg" xmlns:xlink="http://www.w3.org/1999/xlink" viewBox="0 0 482.11 689.89"><defs><style>.cls-1{fill:url(#linear-gradient);}.cls-2{fill:#fff;}</style><linearGradient id="linear-gradient" x1="195.99" y1="604.41" x2="195.99" y2="388.33" gradientTransform="translate(0 691.57) scale(1 -1)" gradientUnits="userSpaceOnUse"><stop offset="0" stop-color="#b98aff"/><stop offset="1" stop-color="#8e2dff"/></linearGradient></defs><g id="Layer_1"><path class="cls-2" d="M448.8,335.81c-44.41-43.83-116.41-43.83-160.77,0l-164.6,162.48c-44.41,43.83-44.41,114.94,0,158.72,44.41,43.83,116.41,43.83,160.77,0l164.6-162.48c44.41-43.83,44.41-114.89,0-158.72Z"/><path class="cls-1" d="M358.67,32.88c-44.41-43.83-116.41-43.83-160.77,0L33.31,195.35c-44.41,43.84-44.41,114.94,0,158.72,44.41,43.83,116.41,43.83,160.77,0l164.6-162.48c44.41-43.84,44.41-114.94,0-158.72Z"/></g></svg>