<?xml version="1.0" encoding="UTF-8"?><svg id="Layer_2" xmlns="http://www.w3.org/2000/svg" xmlns:xlink="http://www.w3.org/1999/xlink" viewBox="0 0 1113.27 476.94"><defs><style>.cls-1{fill:url(#linear-gradient);}.cls-2{fill:#fff;}</style><linearGradient id="linear-gradient" x1="135.49" y1="418.17" x2="135.49" y2="268.78" gradientTransform="translate(0 478.43) scale(1 -1)" gradientUnits="userSpaceOnUse"><stop offset="0" stop-color="#b98aff"/><stop offset="1" stop-color="#8e2dff"/></linearGradient></defs><g id="Layer_1"><path class="cls-2" d="M310.27,232.16c-30.7-30.3-80.48-30.3-111.14,0l-113.79,112.33c-30.7,30.3-30.7,79.46,0,109.73,30.7,30.3,80.48,30.3,111.14,0l113.79-112.33c30.7-30.3,30.7-79.43,0-109.73Z"/><path class="cls-1" d="M247.96,22.73c-30.7-30.3-80.48-30.3-111.14,0L23.03,135.05c-30.7,30.31-30.7,79.46,0,109.73,30.7,30.3,80.48,30.3,111.14,0l113.79-112.33c30.7-30.3,30.7-79.46,0-109.73Z"/><path class="cls-2" d="M1007.8,298.29c25.3,0,43.39-21.49,43.39-56.76s-16.1-59.17-44.65-59.17-46.25,25.54-46.25,59.17,18.96,56.76,47.51,56.76ZM895.87,411.41V135.29h63.64v25.15h1.21c14.26-18.65,34.66-31.22,63.21-31.22,55.46,0,89.33,47.42,89.33,109.86,0,67.31-36.31,110.29-90.94,110.29-26.9,0-46.1-10.55-59.14-27.99h-.82v90h-66.5v.04Z"/><path class="cls-2" d="M734.51,342.9v-207.61h63.64v32.43h1.22c14.69-24.72,31.8-38.28,57.1-38.28,6.11,0,10.18.39,13.04,1.64v56.76h-1.64c-40.77-5.68-66.89,16.8-66.89,61.8v93.23h-66.46v.04Z"/><path class="cls-2" d="M702.63,135.29h-66.5v207.57h66.5v-207.57Z"/><path class="cls-2" d="M519.5,349.36c-61.17,0-99.52-27.99-101.55-73.77h62.82c2.43,20.67,16.33,30.79,38.34,30.79,19.97,0,32.62-7.28,32.62-20.67,0-18.65-25.3-20.67-53.03-25.54-36.31-6.07-75.04-15.81-75.04-64.47,0-43.8,40.77-66.49,90.16-66.49,59.14,0,90.94,25.54,94.23,66.49h-61.17c-2.43-18.65-15.08-24.33-33.45-24.33-16.33,0-28.94,6.07-28.94,19.04,0,14.6,23.65,16.62,50.17,21.49,36.7,6.07,79.93,15.41,79.93,68.51-.04,45.43-40.42,68.94-95.09,68.94Z"/></g></svg>