<svg display="block" role="presentation" viewBox="0 0 19 19" xmlns="http://www.w3.org/2000/svg"><path d="M 16.5 0 C 17.881 0 19 1.119 19 2.5 L 19 16.5 C 19 17.881 17.881 19 16.5 19 L 2.5 19 C 1.119 19 0 17.881 0 16.5 L 0 2.5 C 0 1.119 1.119 0 2.5 0 Z M 2.5 1 C 1.672 1 1 1.672 1 2.5 L 1 16.5 C 1 17.328 1.672 18 2.5 18 L 16.5 18 C 17.328 18 18 17.328 18 16.5 L 18 2.5 C 18 1.672 17.328 1 16.5 1 Z" fill="rgb(255, 255, 255)" height="19px" id="f3Z5sh3hh" width="19px"/><path d="M 2 0 L 2 11 L 0 11 L 0 0 Z" fill="rgb(255, 255, 255)" height="11px" id="Pdx6pNKv2" stroke-dasharray="" stroke-linecap="round" stroke-linejoin="miter" stroke-miterlimit="10" stroke-width="1" stroke="rgb(255, 255, 255)" transform="translate(13 4)" width="2px"/><path d="M 2 0 L 2 3 L 0 3 L 0 0 Z" fill="rgb(255, 255, 255)" height="3px" id="bPnmUvKuy" stroke-dasharray="" stroke-linecap="round" stroke-linejoin="miter" stroke-miterlimit="10" stroke-width="1" stroke="rgb(255, 255, 255)" transform="translate(4 12)" width="2px"/><path d="M 2 0 L 2 7 L 0 7 L 0 0 Z" fill="rgb(255, 255, 255)" height="6.9999899999999995px" id="yFhOGw1Lt" stroke-dasharray="" stroke-linecap="round" stroke-linejoin="miter" stroke-miterlimit="10" stroke-width="1" stroke="rgb(255, 255, 255)" transform="translate(8.5 7.866)" width="2px"/></svg>