<svg display="block" role="presentation" viewBox="0 0 21 24" xmlns="http://www.w3.org/2000/svg"><path d="M 9.623 9.875 L 9.123 9.875 C 9.123 10.151 9.347 10.375 9.623 10.375 Z M 15.5 9.875 L 15.9 10.175 C 16.014 10.023 16.032 9.821 15.947 9.651 C 15.863 9.482 15.689 9.375 15.5 9.375 Z M 6.377 22.044 L 5.877 22.044 C 5.877 22.259 6.015 22.45 6.219 22.518 C 6.423 22.586 6.648 22.516 6.777 22.344 Z M 6.377 12.669 L 6.877 12.669 C 6.877 12.393 6.653 12.169 6.377 12.169 Z M 0.5 12.669 L 0.1 12.369 C -0.014 12.521 -0.032 12.723 0.053 12.893 C 0.138 13.062 0.311 13.169 0.5 13.169 Z M 9.623 0.5 L 10.123 0.5 C 10.123 0.285 9.985 0.094 9.781 0.026 C 9.577 -0.042 9.352 0.028 9.223 0.2 Z M 9.623 9.875 L 9.623 10.375 L 15.5 10.375 L 15.5 9.875 L 15.5 9.375 L 9.623 9.375 Z M 15.5 9.875 L 15.1 9.575 L 5.977 21.744 L 6.377 22.044 L 6.777 22.344 L 15.9 10.175 Z M 6.377 22.044 L 6.877 22.044 L 6.877 12.669 L 6.377 12.669 L 5.877 12.669 L 5.877 22.044 Z M 6.377 12.669 L 6.377 12.169 L 0.5 12.169 L 0.5 12.669 L 0.5 13.169 L 6.377 13.169 Z M 0.5 12.669 L 0.9 12.969 L 10.023 0.8 L 9.623 0.5 L 9.223 0.2 L 0.1 12.369 Z M 9.623 0.5 L 9.123 0.5 L 9.123 9.875 L 9.623 9.875 L 10.123 9.875 L 10.123 0.5 Z" fill="rgb(255, 255, 255)" height="22.54399293725033px" id="xXBnaf2D0" transform="translate(2.5 0.5)" width="15.999996630483194px"/></svg>