<svg display="block" role="presentation" viewBox="0 0 21 24" xmlns="http://www.w3.org/2000/svg"><path d="M 6 23.5 L 5 23.5 L 5 19 L 0.5 19 L 0.5 18 L 7.25 18 C 9.045 18 10.5 16.545 10.5 14.75 C 10.5 12.955 9.045 11.5 7.25 11.5 L 3.75 11.5 C 1.679 11.5 0 9.821 0 7.75 C 0 5.679 1.679 4 3.75 4 L 5 4 L 5 0 L 6 0 L 6 4 L 11 4 L 11 5 L 3.75 5 C 2.231 5 1 6.231 1 7.75 C 1 9.269 2.231 10.5 3.75 10.5 L 7.25 10.5 C 9.597 10.5 11.5 12.403 11.5 14.75 C 11.5 17.097 9.597 19 7.25 19 L 6 19 Z" fill="rgb(255, 255, 255)" height="23.5px" id="D8mK1dOV2" transform="translate(5 0)" width="11.5px"/></svg>