<svg display="block" role="presentation" viewBox="0 0 21 24" xmlns="http://www.w3.org/2000/svg"><path d="M 8.58 4.03 C 9.095 4.085 9.467 4.534 9.467 5.039 L 9.467 11.488 L 15.959 11.488 C 16.528 11.489 16.95 11.965 16.95 12.503 C 16.95 17.21 13.131 20.981 8.476 20.981 C 3.82 20.981 0 17.21 0 12.503 C 0 7.795 3.82 4.024 8.476 4.024 Z M 8.462 5.024 C 4.361 5.032 1 8.356 1 12.503 C 1 16.655 4.369 19.981 8.476 19.981 C 12.582 19.981 15.95 16.655 15.95 12.503 C 15.95 12.496 15.947 12.491 15.945 12.488 L 8.967 12.488 C 8.691 12.488 8.467 12.264 8.467 11.988 L 8.467 5.039 C 8.467 5.032 8.464 5.027 8.462 5.024 Z M 12.505 0 C 17.161 0 20.98 3.771 20.98 8.479 C 20.98 9.017 20.558 9.493 19.989 9.493 L 12.505 9.493 C 11.936 9.493 11.514 9.017 11.514 8.479 L 11.514 1.015 C 11.514 0.476 11.936 0 12.505 0 Z M 12.514 1.015 L 12.514 8.479 C 12.514 8.486 12.517 8.49 12.519 8.493 L 19.976 8.493 C 19.977 8.49 19.98 8.486 19.98 8.479 C 19.98 4.331 16.619 1.007 12.518 1 C 12.516 1.003 12.514 1.007 12.514 1.015 Z" fill="rgb(255, 255, 255)" height="20.981399770965577px" id="WVpd2RPr1" transform="translate(0 2)" width="20.980499531555175px"/></svg>