<svg display="block" role="presentation" viewBox="0 0 20 19" xmlns="http://www.w3.org/2000/svg"><path d="M 8.125 0 C 12.612 0 16.25 3.638 16.25 8.125 C 16.25 9.872 15.696 11.489 14.758 12.813 L 19.067 17.123 C 19.311 17.367 19.311 17.763 19.067 18.007 C 18.823 18.251 18.428 18.25 18.184 18.007 L 13.956 13.779 C 12.479 15.302 10.414 16.25 8.125 16.25 C 3.638 16.25 0 12.612 0 8.125 C 0 3.638 3.638 0 8.125 0 Z M 8.125 1.25 C 4.328 1.25 1.25 4.328 1.25 8.125 C 1.25 11.922 4.328 15 8.125 15 C 11.922 15 15 11.922 15 8.125 C 15 4.328 11.922 1.25 8.125 1.25 Z" fill="rgb(255, 255, 255)" height="18.18953751731479px" id="vfovYqRis" width="19.250062517321904px"/></svg>