<svg display="block" role="presentation" viewBox="0 0 21 24" xmlns="http://www.w3.org/2000/svg"><path d="M 9.039 2.062 C 9.418 1.368 10.413 1.369 10.792 2.062 L 13.664 7.311 C 13.756 7.479 13.894 7.617 14.062 7.708 L 19.311 10.58 C 20.005 10.96 20.005 11.955 19.311 12.334 L 14.062 15.206 L 13.942 15.284 C 13.828 15.369 13.733 15.478 13.664 15.604 L 10.792 20.853 C 10.437 21.503 9.54 21.544 9.117 20.975 L 9.039 20.853 L 6.166 15.604 C 6.098 15.478 6.003 15.369 5.889 15.284 L 5.769 15.206 L 0.52 12.334 C -0.13 11.979 -0.171 11.082 0.398 10.659 L 0.52 10.58 L 5.769 7.708 C 5.937 7.617 6.075 7.479 6.166 7.311 Z M 7.044 7.791 C 6.861 8.127 6.585 8.403 6.249 8.586 L 0.999 11.457 L 6.249 14.328 C 6.585 14.512 6.861 14.788 7.044 15.123 L 9.916 20.373 L 12.787 15.123 C 12.97 14.788 13.246 14.512 13.581 14.328 L 18.831 11.457 L 13.581 8.586 C 13.246 8.403 12.97 8.127 12.787 7.791 L 9.916 2.541 Z M 18.477 0.26 C 18.667 -0.087 19.164 -0.087 19.354 0.26 L 19.906 1.268 C 19.952 1.352 20.021 1.421 20.105 1.467 L 21.114 2.019 C 21.46 2.209 21.46 2.706 21.114 2.896 L 20.105 3.448 C 20.021 3.493 19.952 3.563 19.906 3.647 L 19.354 4.656 C 19.164 5.002 18.667 5.002 18.477 4.656 L 17.925 3.647 C 17.879 3.563 17.811 3.493 17.727 3.448 L 16.718 2.896 C 16.372 2.706 16.372 2.209 16.718 2.019 L 17.727 1.467 C 17.811 1.421 17.88 1.352 17.925 1.268 Z" fill="rgb(255, 255, 255)" height="21.37302352901643px" id="ynZg3PIpR" transform="translate(0 1)" width="21.373713160532304px"/></svg>